<?xml version="1.0" encoding="UTF-8" standalone="no"?>
<!DOCTYPE svg PUBLIC "-//W3C//DTD SVG 1.1//EN"
 "http://www.w3.org/Graphics/SVG/1.1/DTD/svg11.dtd">
<!-- Generated by graphviz version 2.43.0 (0)
 -->
<!-- Title: topology Pages: 1 -->
<svg width="1371pt" height="1066pt"
 viewBox="0.00 0.00 1371.20 1066.20" xmlns="http://www.w3.org/2000/svg" xmlns:xlink="http://www.w3.org/1999/xlink">
<g id="graph0" class="graph" transform="scale(1 1) rotate(0) translate(21.6 1044.6)">
<title>topology</title>
<polygon fill="white" stroke="transparent" points="-21.6,21.6 -21.6,-1044.6 1349.6,-1044.6 1349.6,21.6 -21.6,21.6"/>
<text text-anchor="middle" x="664" y="-1006.2" font-family="DejaVu Sans" font-size="16.00">qb&#45;load&#45;boundary&#45;matrix&#45;20260824 — structural variant paper&#45;j1&#45;logical1&#45;read</text>
<text text-anchor="middle" x="664" y="-988.2" font-family="DejaVu Sans" font-size="16.00">source: test/exploration/qb&#45;load&#45;boundary&#45;matrix&#45;20260824/inputs/D&#45;q5&#45;open/paper&#45;j1&#45;logical1&#45;read.cir</text>
<g id="clust1" class="cluster">
<title>cluster_XBQ</title>
<path fill="#eadcff" fill-opacity="0.333333" stroke="#eadcff" d="M542,-63C542,-63 670,-63 670,-63 676,-63 682,-69 682,-75 682,-75 682,-678 682,-678 682,-684 676,-690 670,-690 670,-690 542,-690 542,-690 536,-690 530,-684 530,-678 530,-678 530,-75 530,-75 530,-69 536,-63 542,-63"/>
<text text-anchor="middle" x="606" y="-673.2" font-family="DejaVu Sans" font-size="16.00">QB / regenerator</text>
<text text-anchor="middle" x="606" y="-655.2" font-family="DejaVu Sans" font-size="16.00">(XBQ)</text>
</g>
<g id="clust2" class="cluster">
<title>cluster_top&#45;level</title>
<path fill="#f1f3f5" fill-opacity="0.333333" stroke="#f1f3f5" d="M20,-758C20,-758 1192,-758 1192,-758 1198,-758 1204,-764 1204,-770 1204,-770 1204,-901 1204,-901 1204,-907 1198,-913 1192,-913 1192,-913 20,-913 20,-913 14,-913 8,-907 8,-901 8,-901 8,-770 8,-770 8,-764 14,-758 20,-758"/>
<text text-anchor="middle" x="606" y="-896.2" font-family="DejaVu Sans" font-size="16.00">bias / top&#45;level</text>
<text text-anchor="middle" x="606" y="-878.2" font-family="DejaVu Sans" font-size="16.00">(top&#45;level)</text>
</g>
<!-- e_XBQ_Lin -->
<g id="node1" class="node">
<title>e_XBQ_Lin</title>
<path fill="white" stroke="black" d="M621,-579C621,-579 591,-579 591,-579 585,-579 579,-573 579,-567 579,-567 579,-555 579,-555 579,-549 585,-543 591,-543 591,-543 621,-543 621,-543 627,-543 633,-549 633,-555 633,-555 633,-567 633,-567 633,-573 627,-579 621,-579"/>
<text text-anchor="middle" x="606" y="-563.8" font-family="DejaVu Sans" font-size="9.00">XBQ/Lin</text>
<text text-anchor="middle" x="606" y="-553.8" font-family="DejaVu Sans" font-size="9.00">[L] 0.8p</text>
</g>
<!-- n_IN -->
<g id="node15" class="node">
<title>n_IN</title>
<ellipse fill="#fffdf2" stroke="black" cx="1301" cy="-654" rx="27" ry="18"/>
<text text-anchor="middle" x="1301" y="-651.8" font-family="DejaVu Sans" font-size="9.00">IN</text>
</g>
<!-- e_XBQ_Lin&#45;&gt;n_IN -->
<g id="edge1" class="edge">
<title>e_XBQ_Lin&#45;&gt;n_IN</title>
<path fill="none" stroke="#65758b" d="M633.04,-562.31C747.94,-568.08 1204,-591 1204,-591 1204,-591 1253.06,-623.19 1281.03,-641.55"/>
<text text-anchor="middle" x="1235" y="-615.6" font-family="DejaVu Sans" font-size="8.00">a</text>
</g>
<!-- n_XBQ_1 -->
<g id="node18" class="node">
<title>n_XBQ_1</title>
<ellipse fill="#fffdf2" stroke="black" cx="1301" cy="-488" rx="27" ry="18"/>
<text text-anchor="middle" x="1301" y="-485.8" font-family="DejaVu Sans" font-size="9.00">XBQ/1</text>
</g>
<!-- e_XBQ_Lin&#45;&gt;n_XBQ_1 -->
<g id="edge2" class="edge">
<title>e_XBQ_Lin&#45;&gt;n_XBQ_1</title>
<path fill="none" stroke="#65758b" d="M633.06,-561.04C751.35,-561.23 1232,-562 1232,-562 1232,-562 1238,-562 1238,-562 1238,-562 1268.65,-525.42 1286.85,-503.69"/>
<text text-anchor="middle" x="1235" y="-564.6" font-family="DejaVu Sans" font-size="8.00">b</text>
</g>
<!-- e_XBQ_L0 -->
<g id="node2" class="node">
<title>e_XBQ_L0</title>
<path fill="white" stroke="black" d="M624.5,-107C624.5,-107 587.5,-107 587.5,-107 581.5,-107 575.5,-101 575.5,-95 575.5,-95 575.5,-83 575.5,-83 575.5,-77 581.5,-71 587.5,-71 587.5,-71 624.5,-71 624.5,-71 630.5,-71 636.5,-77 636.5,-83 636.5,-83 636.5,-95 636.5,-95 636.5,-101 630.5,-107 624.5,-107"/>
<text text-anchor="middle" x="606" y="-91.8" font-family="DejaVu Sans" font-size="9.00">XBQ/L0</text>
<text text-anchor="middle" x="606" y="-81.8" font-family="DejaVu Sans" font-size="9.00">[L] 1.323p</text>
</g>
<!-- n_OUT -->
<g id="node16" class="node">
<title>n_OUT</title>
<ellipse fill="#fffdf2" stroke="black" cx="1301" cy="-18" rx="27" ry="18"/>
<text text-anchor="middle" x="1301" y="-15.8" font-family="DejaVu Sans" font-size="9.00">OUT</text>
</g>
<!-- e_XBQ_L0&#45;&gt;n_OUT -->
<g id="edge4" class="edge">
<title>e_XBQ_L0&#45;&gt;n_OUT</title>
<path fill="none" stroke="#65758b" d="M636.78,-85.95C751.81,-74.16 1166.08,-31.72 1274.1,-20.65"/>
<text text-anchor="middle" x="1235" y="-27.6" font-family="DejaVu Sans" font-size="8.00">b</text>
</g>
<!-- n_XBQ_4 -->
<g id="node21" class="node">
<title>n_XBQ_4</title>
<ellipse fill="#fffdf2" stroke="black" cx="1301" cy="-110" rx="27" ry="18"/>
<text text-anchor="middle" x="1301" y="-107.8" font-family="DejaVu Sans" font-size="9.00">XBQ/4</text>
</g>
<!-- e_XBQ_L0&#45;&gt;n_XBQ_4 -->
<g id="edge3" class="edge">
<title>e_XBQ_L0&#45;&gt;n_XBQ_4</title>
<path fill="none" stroke="#65758b" d="M636.72,-87.43C760.93,-80.87 1232,-56 1232,-56 1232,-56 1238,-56 1238,-56 1238,-56 1265.34,-79.81 1283.71,-95.81"/>
<text text-anchor="middle" x="1235" y="-58.6" font-family="DejaVu Sans" font-size="8.00">a</text>
</g>
<!-- e_XBQ_L1 -->
<g id="node3" class="node">
<title>e_XBQ_L1</title>
<path fill="white" stroke="black" d="M621.5,-520C621.5,-520 590.5,-520 590.5,-520 584.5,-520 578.5,-514 578.5,-508 578.5,-508 578.5,-496 578.5,-496 578.5,-490 584.5,-484 590.5,-484 590.5,-484 621.5,-484 621.5,-484 627.5,-484 633.5,-490 633.5,-496 633.5,-496 633.5,-508 633.5,-508 633.5,-514 627.5,-520 621.5,-520"/>
<text text-anchor="middle" x="606" y="-504.8" font-family="DejaVu Sans" font-size="9.00">XBQ/L1</text>
<text text-anchor="middle" x="606" y="-494.8" font-family="DejaVu Sans" font-size="9.00">[L] 4.50p</text>
</g>
<!-- n_XBQ_2 -->
<g id="node19" class="node">
<title>n_XBQ_2</title>
<ellipse fill="#fffdf2" stroke="black" cx="1301" cy="-406" rx="27" ry="18"/>
<text text-anchor="middle" x="1301" y="-403.8" font-family="DejaVu Sans" font-size="9.00">XBQ/2</text>
</g>
<!-- e_XBQ_L1&#45;&gt;n_XBQ_2 -->
<g id="edge5" class="edge">
<title>e_XBQ_L1&#45;&gt;n_XBQ_2</title>
<path fill="none" stroke="#65758b" d="M633.71,-500.73C753.81,-495.02 1238,-472 1238,-472 1238,-472 1267.64,-440.45 1285.93,-420.98"/>
<text text-anchor="middle" x="1235" y="-474.6" font-family="DejaVu Sans" font-size="8.00">a</text>
</g>
<!-- n_XBQ_3 -->
<g id="node20" class="node">
<title>n_XBQ_3</title>
<ellipse fill="#fffdf2" stroke="black" cx="1301" cy="-573" rx="27" ry="18"/>
<text text-anchor="middle" x="1301" y="-570.8" font-family="DejaVu Sans" font-size="9.00">XBQ/3</text>
</g>
<!-- e_XBQ_L1&#45;&gt;n_XBQ_3 -->
<g id="edge6" class="edge">
<title>e_XBQ_L1&#45;&gt;n_XBQ_3</title>
<path fill="none" stroke="#65758b" d="M633.81,-503.35C749.98,-509.18 1204,-532 1204,-532 1204,-532 1232,-546 1232,-546 1232,-546 1257.58,-556.16 1277.36,-564.01"/>
<text text-anchor="middle" x="1235" y="-550.6" font-family="DejaVu Sans" font-size="8.00">b</text>
</g>
<!-- e_XBQ_L2 -->
<g id="node4" class="node">
<title>e_XBQ_L2</title>
<path fill="white" stroke="black" d="M621.5,-343C621.5,-343 590.5,-343 590.5,-343 584.5,-343 578.5,-337 578.5,-331 578.5,-331 578.5,-319 578.5,-319 578.5,-313 584.5,-307 590.5,-307 590.5,-307 621.5,-307 621.5,-307 627.5,-307 633.5,-313 633.5,-319 633.5,-319 633.5,-331 633.5,-331 633.5,-337 627.5,-343 621.5,-343"/>
<text text-anchor="middle" x="606" y="-327.8" font-family="DejaVu Sans" font-size="9.00">XBQ/L2</text>
<text text-anchor="middle" x="606" y="-317.8" font-family="DejaVu Sans" font-size="9.00">[L] 4.50p</text>
</g>
<!-- e_XBQ_L2&#45;&gt;n_XBQ_3 -->
<g id="edge7" class="edge">
<title>e_XBQ_L2&#45;&gt;n_XBQ_3</title>
<path fill="none" stroke="#65758b" d="M633.81,-326.35C749.98,-332.18 1204,-355 1204,-355 1204,-355 1232,-486 1232,-486 1232,-486 1267.9,-531.93 1287.53,-557.04"/>
<text text-anchor="middle" x="1235" y="-495.6" font-family="DejaVu Sans" font-size="8.00">a</text>
</g>
<!-- e_XBQ_L2&#45;&gt;n_XBQ_4 -->
<g id="edge8" class="edge">
<title>e_XBQ_L2&#45;&gt;n_XBQ_4</title>
<path fill="none" stroke="#65758b" d="M633.81,-323.7C749.98,-318.05 1204,-296 1204,-296 1204,-296 1238,-246 1238,-246 1238,-246 1275.46,-163.82 1292.15,-127.22"/>
<text text-anchor="middle" x="1235" y="-257.6" font-family="DejaVu Sans" font-size="8.00">b</text>
</g>
<!-- e_XBQ_BJs -->
<g id="node5" class="node">
<title>e_XBQ_BJs</title>
<path fill="white" stroke="black" d="M641,-461C641,-461 571,-461 571,-461 565,-461 559,-455 559,-449 559,-449 559,-437 559,-437 559,-431 565,-425 571,-425 571,-425 641,-425 641,-425 647,-425 653,-431 653,-437 653,-437 653,-449 653,-449 653,-455 647,-461 641,-461"/>
<text text-anchor="middle" x="606" y="-445.8" font-family="DejaVu Sans" font-size="9.00">XBQ/BJs</text>
<text text-anchor="middle" x="606" y="-435.8" font-family="DejaVu Sans" font-size="9.00">[B] jjmit area=0.5</text>
</g>
<!-- e_XBQ_BJs&#45;&gt;n_XBQ_1 -->
<g id="edge9" class="edge">
<title>e_XBQ_BJs&#45;&gt;n_XBQ_1</title>
<path fill="none" stroke="#65758b" d="M653.14,-444.46C798.61,-449.07 1238,-463 1238,-463 1238,-463 1259.86,-471.81 1277.62,-478.97"/>
<text text-anchor="middle" x="1235" y="-465.6" font-family="DejaVu Sans" font-size="8.00">a</text>
</g>
<!-- e_XBQ_BJs&#45;&gt;n_XBQ_2 -->
<g id="edge10" class="edge">
<title>e_XBQ_BJs&#45;&gt;n_XBQ_2</title>
<path fill="none" stroke="#65758b" d="M653.35,-440.75C793.62,-433.93 1204,-414 1204,-414 1204,-414 1245.59,-410.53 1274.02,-408.16"/>
<text text-anchor="middle" x="1235" y="-413.6" font-family="DejaVu Sans" font-size="8.00">b</text>
</g>
<!-- e_XBQ_BJL1 -->
<g id="node6" class="node">
<title>e_XBQ_BJL1</title>
<path fill="white" stroke="black" d="M644,-402C644,-402 568,-402 568,-402 562,-402 556,-396 556,-390 556,-390 556,-378 556,-378 556,-372 562,-366 568,-366 568,-366 644,-366 644,-366 650,-366 656,-372 656,-378 656,-378 656,-390 656,-390 656,-396 650,-402 644,-402"/>
<text text-anchor="middle" x="606" y="-386.8" font-family="DejaVu Sans" font-size="9.00">XBQ/BJL1</text>
<text text-anchor="middle" x="606" y="-376.8" font-family="DejaVu Sans" font-size="9.00">[B] jjmit area=0.36</text>
</g>
<!-- n_XBQ_0 -->
<g id="node17" class="node">
<title>n_XBQ_0</title>
<ellipse fill="#fffdf2" stroke="black" cx="1301" cy="-221" rx="27" ry="18"/>
<text text-anchor="middle" x="1301" y="-218.8" font-family="DejaVu Sans" font-size="9.00">XBQ/0</text>
</g>
<!-- e_XBQ_BJL1&#45;&gt;n_XBQ_0 -->
<g id="edge12" class="edge">
<title>e_XBQ_BJL1&#45;&gt;n_XBQ_0</title>
<path fill="none" stroke="#65758b" d="M656.11,-381.61C798.92,-374.68 1204,-355 1204,-355 1204,-355 1238,-324 1238,-324 1238,-324 1272.51,-266.66 1290.04,-237.55"/>
<text text-anchor="middle" x="1235" y="-331.6" font-family="DejaVu Sans" font-size="8.00">b</text>
</g>
<!-- e_XBQ_BJL1&#45;&gt;n_XBQ_2 -->
<g id="edge11" class="edge">
<title>e_XBQ_BJL1&#45;&gt;n_XBQ_2</title>
<path fill="none" stroke="#65758b" d="M656.25,-384.39C804.76,-385.57 1238,-389 1238,-389 1238,-389 1258.44,-394.61 1275.85,-399.38"/>
<text text-anchor="middle" x="1235" y="-391.6" font-family="DejaVu Sans" font-size="8.00">a</text>
</g>
<!-- e_XBQ_RJ1 -->
<g id="node7" class="node">
<title>e_XBQ_RJ1</title>
<path fill="white" stroke="black" d="M621,-284C621,-284 591,-284 591,-284 585,-284 579,-278 579,-272 579,-272 579,-260 579,-260 579,-254 585,-248 591,-248 591,-248 621,-248 621,-248 627,-248 633,-254 633,-260 633,-260 633,-272 633,-272 633,-278 627,-284 621,-284"/>
<text text-anchor="middle" x="606" y="-268.8" font-family="DejaVu Sans" font-size="9.00">XBQ/RJ1</text>
<text text-anchor="middle" x="606" y="-258.8" font-family="DejaVu Sans" font-size="9.00">[R] 33</text>
</g>
<!-- e_XBQ_RJ1&#45;&gt;n_XBQ_0 -->
<g id="edge14" class="edge">
<title>e_XBQ_RJ1&#45;&gt;n_XBQ_0</title>
<path fill="none" stroke="#65758b" d="M633.04,-264.69C747.94,-258.92 1204,-236 1204,-236 1204,-236 1246.09,-229.42 1274.53,-224.98"/>
<text text-anchor="middle" x="1235" y="-234.6" font-family="DejaVu Sans" font-size="8.00">b</text>
</g>
<!-- e_XBQ_RJ1&#45;&gt;n_XBQ_2 -->
<g id="edge13" class="edge">
<title>e_XBQ_RJ1&#45;&gt;n_XBQ_2</title>
<path fill="none" stroke="#65758b" d="M633.04,-267.31C747.94,-273.08 1204,-296 1204,-296 1204,-296 1238,-315 1238,-315 1238,-315 1271.08,-363.56 1288.92,-389.73"/>
<text text-anchor="middle" x="1235" y="-317.6" font-family="DejaVu Sans" font-size="8.00">a</text>
</g>
<!-- e_XBQ_BJL2 -->
<g id="node8" class="node">
<title>e_XBQ_BJL2</title>
<path fill="white" stroke="black" d="M644,-225C644,-225 568,-225 568,-225 562,-225 556,-219 556,-213 556,-213 556,-201 556,-201 556,-195 562,-189 568,-189 568,-189 644,-189 644,-189 650,-189 656,-195 656,-201 656,-201 656,-213 656,-213 656,-219 650,-225 644,-225"/>
<text text-anchor="middle" x="606" y="-209.8" font-family="DejaVu Sans" font-size="9.00">XBQ/BJL2</text>
<text text-anchor="middle" x="606" y="-199.8" font-family="DejaVu Sans" font-size="9.00">[B] jjmit area=0.54</text>
</g>
<!-- e_XBQ_BJL2&#45;&gt;n_XBQ_0 -->
<g id="edge16" class="edge">
<title>e_XBQ_BJL2&#45;&gt;n_XBQ_0</title>
<path fill="none" stroke="#65758b" d="M656.04,-206.76C803.38,-206.06 1232,-204 1232,-204 1232,-204 1238,-204 1238,-204 1238,-204 1258.44,-209.61 1275.85,-214.38"/>
<text text-anchor="middle" x="1235" y="-206.6" font-family="DejaVu Sans" font-size="8.00">b</text>
</g>
<!-- e_XBQ_BJL2&#45;&gt;n_XBQ_4 -->
<g id="edge15" class="edge">
<title>e_XBQ_BJL2&#45;&gt;n_XBQ_4</title>
<path fill="none" stroke="#65758b" d="M656.11,-204.53C798.92,-197.36 1204,-177 1204,-177 1204,-177 1253.59,-142.39 1281.49,-122.92"/>
<text text-anchor="middle" x="1235" y="-160.6" font-family="DejaVu Sans" font-size="8.00">a</text>
</g>
<!-- e_XBQ_RJ2 -->
<g id="node9" class="node">
<title>e_XBQ_RJ2</title>
<path fill="white" stroke="black" d="M621,-166C621,-166 591,-166 591,-166 585,-166 579,-160 579,-154 579,-154 579,-142 579,-142 579,-136 585,-130 591,-130 591,-130 621,-130 621,-130 627,-130 633,-136 633,-142 633,-142 633,-154 633,-154 633,-160 627,-166 621,-166"/>
<text text-anchor="middle" x="606" y="-150.8" font-family="DejaVu Sans" font-size="9.00">XBQ/RJ2</text>
<text text-anchor="middle" x="606" y="-140.8" font-family="DejaVu Sans" font-size="9.00">[R] 22</text>
</g>
<!-- e_XBQ_RJ2&#45;&gt;n_XBQ_0 -->
<g id="edge18" class="edge">
<title>e_XBQ_RJ2&#45;&gt;n_XBQ_0</title>
<path fill="none" stroke="#65758b" d="M633.04,-149.26C747.94,-154.85 1204,-177 1204,-177 1204,-177 1238,-190 1238,-190 1238,-190 1261.02,-201.51 1279.01,-210.5"/>
<text text-anchor="middle" x="1235" y="-192.6" font-family="DejaVu Sans" font-size="8.00">b</text>
</g>
<!-- e_XBQ_RJ2&#45;&gt;n_XBQ_4 -->
<g id="edge17" class="edge">
<title>e_XBQ_RJ2&#45;&gt;n_XBQ_4</title>
<path fill="none" stroke="#65758b" d="M633.04,-146.69C747.94,-140.92 1204,-118 1204,-118 1204,-118 1232,-93 1232,-93 1232,-93 1238,-93 1238,-93 1238,-93 1258.44,-98.61 1275.85,-103.38"/>
<text text-anchor="middle" x="1235" y="-95.6" font-family="DejaVu Sans" font-size="8.00">a</text>
</g>
<!-- e_XBQ_RB -->
<g id="node10" class="node">
<title>e_XBQ_RB</title>
<path fill="white" stroke="black" d="M621,-638C621,-638 591,-638 591,-638 585,-638 579,-632 579,-626 579,-626 579,-614 579,-614 579,-608 585,-602 591,-602 591,-602 621,-602 621,-602 627,-602 633,-608 633,-614 633,-614 633,-626 633,-626 633,-632 627,-638 621,-638"/>
<text text-anchor="middle" x="606" y="-622.8" font-family="DejaVu Sans" font-size="9.00">XBQ/RB</text>
<text text-anchor="middle" x="606" y="-612.8" font-family="DejaVu Sans" font-size="9.00">[R] 6</text>
</g>
<!-- n_IBIAS -->
<g id="node14" class="node">
<title>n_IBIAS</title>
<ellipse fill="#fffdf2" stroke="black" cx="1301" cy="-747" rx="27" ry="18"/>
<text text-anchor="middle" x="1301" y="-744.8" font-family="DejaVu Sans" font-size="9.00">IBIAS</text>
</g>
<!-- e_XBQ_RB&#45;&gt;n_IBIAS -->
<g id="edge19" class="edge">
<title>e_XBQ_RB&#45;&gt;n_IBIAS</title>
<path fill="none" stroke="#65758b" d="M633.31,-624.25C752.73,-643.56 1238,-722 1238,-722 1238,-722 1259.86,-730.81 1277.62,-737.97"/>
<text text-anchor="middle" x="1235" y="-724.6" font-family="DejaVu Sans" font-size="8.00">a</text>
</g>
<!-- e_XBQ_RB&#45;&gt;n_XBQ_3 -->
<g id="edge20" class="edge">
<title>e_XBQ_RB&#45;&gt;n_XBQ_3</title>
<path fill="none" stroke="#65758b" d="M633.06,-621.54C751.35,-628.55 1232,-657 1232,-657 1232,-657 1238,-657 1238,-657 1238,-657 1270.03,-613.61 1288.05,-589.2"/>
<text text-anchor="middle" x="1235" y="-659.6" font-family="DejaVu Sans" font-size="8.00">b</text>
</g>
<!-- e_I_REPLAY -->
<g id="node11" class="node">
<title>e_I_REPLAY</title>
<path fill="white" stroke="black" d="M1184,-802C1184,-802 28,-802 28,-802 22,-802 16,-796 16,-790 16,-790 16,-778 16,-778 16,-772 22,-766 28,-766 28,-766 1184,-766 1184,-766 1190,-766 1196,-772 1196,-778 1196,-778 1196,-790 1196,-790 1196,-796 1190,-802 1184,-802"/>
<text text-anchor="middle" x="606" y="-786.8" font-family="DejaVu Sans" font-size="9.00">I_REPLAY</text>
<text text-anchor="middle" x="606" y="-776.8" font-family="DejaVu Sans" font-size="9.00">[I] pwl(0p 0 0.012500000000000001p 0 0.025000000000000001p 0 0.037499999999999999p 0 0.050000000000000003p 0 0.0625p 0 0.07499999 ... [value shortened for diagram; source deck is exact] ... 000000001p 0 0.21249999999999999p 0</text>
</g>
<!-- n_0 -->
<g id="node13" class="node">
<title>n_0</title>
<ellipse fill="#fffdf2" stroke="black" cx="1301" cy="-832" rx="27" ry="18"/>
<text text-anchor="middle" x="1301" y="-829.8" font-family="DejaVu Sans" font-size="9.00">0</text>
</g>
<!-- e_I_REPLAY&#45;&gt;n_0 -->
<g id="edge21" class="edge">
<title>e_I_REPLAY&#45;&gt;n_0</title>
<path fill="none" stroke="#65758b" d="M1196.11,-795.2C1222.4,-795.7 1238,-796 1238,-796 1238,-796 1261.92,-809.89 1280.04,-820.41"/>
<text text-anchor="middle" x="1235" y="-798.6" font-family="DejaVu Sans" font-size="8.00">a</text>
</g>
<!-- e_I_REPLAY&#45;&gt;n_IN -->
<g id="edge22" class="edge">
<title>e_I_REPLAY&#45;&gt;n_IN</title>
<path fill="none" stroke="#65758b" d="M821.51,-765.98C1004.44,-750.62 1238,-731 1238,-731 1238,-731 1269.34,-692.08 1287.45,-669.58"/>
<text text-anchor="middle" x="1235" y="-733.6" font-family="DejaVu Sans" font-size="8.00">b</text>
</g>
<!-- e_I_IBIAS -->
<g id="node12" class="node">
<title>e_I_IBIAS</title>
<path fill="white" stroke="black" d="M689,-861C689,-861 523,-861 523,-861 517,-861 511,-855 511,-849 511,-849 511,-837 511,-837 511,-831 517,-825 523,-825 523,-825 689,-825 689,-825 695,-825 701,-831 701,-837 701,-837 701,-849 701,-849 701,-855 695,-861 689,-861"/>
<text text-anchor="middle" x="606" y="-845.8" font-family="DejaVu Sans" font-size="9.00">I_IBIAS</text>
<text text-anchor="middle" x="606" y="-835.8" font-family="DejaVu Sans" font-size="9.00">[I] pwl(0p 0 1p 40u 2p 40u 170p 40u)</text>
</g>
<!-- e_I_IBIAS&#45;&gt;n_0 -->
<g id="edge23" class="edge">
<title>e_I_IBIAS&#45;&gt;n_0</title>
<path fill="none" stroke="#65758b" d="M701.13,-842.85C877.03,-842.57 1238,-842 1238,-842 1238,-842 1257.35,-838.88 1274.42,-836.13"/>
<text text-anchor="middle" x="1235" y="-844.6" font-family="DejaVu Sans" font-size="8.00">a</text>
</g>
<!-- e_I_IBIAS&#45;&gt;n_IBIAS -->
<g id="edge24" class="edge">
<title>e_I_IBIAS&#45;&gt;n_IBIAS</title>
<path fill="none" stroke="#65758b" d="M701.27,-838.42C869.5,-830.25 1204,-814 1204,-814 1204,-814 1238,-805 1238,-805 1238,-805 1266.31,-778.51 1284.67,-761.34"/>
<text text-anchor="middle" x="1235" y="-808.6" font-family="DejaVu Sans" font-size="8.00">b</text>
</g>
<!-- legend -->
<g id="node22" class="node">
<title>legend</title>
<polygon fill="none" stroke="#8c98a8" points="841.5,-979 364.5,-979 364.5,-921 847.5,-921 847.5,-973 841.5,-979"/>
<polyline fill="none" stroke="#8c98a8" points="841.5,-979 841.5,-973 "/>
<polyline fill="none" stroke="#8c98a8" points="847.5,-973 841.5,-973 "/>
<text text-anchor="middle" x="606" y="-967.8" font-family="DejaVu Sans" font-size="9.00">Legend</text>
<text text-anchor="middle" x="606" y="-957.8" font-family="DejaVu Sans" font-size="9.00">boxes: primitive elements</text>
<text text-anchor="middle" x="606" y="-947.8" font-family="DejaVu Sans" font-size="9.00">ellipses: exact nets</text>
<text text-anchor="middle" x="606" y="-937.8" font-family="DejaVu Sans" font-size="9.00">diamonds: mutual coupling</text>
<text text-anchor="middle" x="606" y="-927.8" font-family="DejaVu Sans" font-size="9.00">source: test/exploration/qb&#45;load&#45;boundary&#45;matrix&#45;20260824/inputs/D&#45;q5&#45;open/paper&#45;j1&#45;logical1&#45;read.cir</text>
</g>
</g>
</svg>
