<?xml version="1.0" encoding="UTF-8" standalone="no"?>
<!DOCTYPE svg PUBLIC "-//W3C//DTD SVG 1.1//EN"
 "http://www.w3.org/Graphics/SVG/1.1/DTD/svg11.dtd">
<!-- Generated by graphviz version 2.43.0 (0)
 -->
<!-- Title: topology Pages: 1 -->
<svg width="693pt" height="2231pt"
 viewBox="0.00 0.00 692.58 2231.20" xmlns="http://www.w3.org/2000/svg" xmlns:xlink="http://www.w3.org/1999/xlink">
<g id="graph0" class="graph" transform="scale(1 1) rotate(0) translate(21.6 2209.6)">
<title>topology</title>
<polygon fill="white" stroke="transparent" points="-21.6,21.6 -21.6,-2209.6 670.98,-2209.6 670.98,21.6 -21.6,21.6"/>
<text text-anchor="middle" x="324.69" y="-2171.2" font-family="DejaVu Sans" font-size="16.00">bvm&#45;sfq&#45;receiver&#45;r0&#45;20260819 — representative topology</text>
<text text-anchor="middle" x="324.69" y="-2153.2" font-family="DejaVu Sans" font-size="16.00">source: test/exploration/bvm&#45;sfq&#45;receiver&#45;r0&#45;20260819/inputs/read1.cir</text>
<g id="clust1" class="cluster">
<title>cluster_XBVM1</title>
<path fill="#dcecff" fill-opacity="0.333333" stroke="#dcecff" d="M199.5,-363C199.5,-363 296.5,-363 296.5,-363 302.5,-363 308.5,-369 308.5,-375 308.5,-375 308.5,-1686 308.5,-1686 308.5,-1692 302.5,-1698 296.5,-1698 296.5,-1698 199.5,-1698 199.5,-1698 193.5,-1698 187.5,-1692 187.5,-1686 187.5,-1686 187.5,-375 187.5,-375 187.5,-369 193.5,-363 199.5,-363"/>
<text text-anchor="middle" x="248" y="-1681.2" font-family="DejaVu Sans" font-size="16.00">BVM / source</text>
<text text-anchor="middle" x="248" y="-1663.2" font-family="DejaVu Sans" font-size="16.00">(XBVM1)</text>
</g>
<g id="clust2" class="cluster">
<title>cluster_XTRIG</title>
<path fill="#d9f3ee" fill-opacity="0.333333" stroke="#d9f3ee" d="M128,-14C128,-14 367,-14 367,-14 373,-14 379,-20 379,-26 379,-26 379,-216 379,-216 379,-222 373,-228 367,-228 367,-228 128,-228 128,-228 122,-228 116,-222 116,-216 116,-216 116,-26 116,-26 116,-20 122,-14 128,-14"/>
<text text-anchor="middle" x="247.5" y="-211.2" font-family="DejaVu Sans" font-size="16.00">receiver / interface</text>
<text text-anchor="middle" x="247.5" y="-193.2" font-family="DejaVu Sans" font-size="16.00">(XTRIG)</text>
</g>
<g id="clust3" class="cluster">
<title>cluster_top&#45;level</title>
<path fill="#f1f3f5" fill-opacity="0.333333" stroke="#f1f3f5" d="M20,-1864C20,-1864 475,-1864 475,-1864 481,-1864 487,-1870 487,-1876 487,-1876 487,-2066 487,-2066 487,-2072 481,-2078 475,-2078 475,-2078 20,-2078 20,-2078 14,-2078 8,-2072 8,-2066 8,-2066 8,-1876 8,-1876 8,-1870 14,-1864 20,-1864"/>
<text text-anchor="middle" x="247.5" y="-2061.2" font-family="DejaVu Sans" font-size="16.00">bias / top&#45;level</text>
<text text-anchor="middle" x="247.5" y="-2043.2" font-family="DejaVu Sans" font-size="16.00">(top&#45;level)</text>
</g>
<!-- e_XBVM1_R_WL -->
<g id="node1" class="node">
<title>e_XBVM1_R_WL</title>
<path fill="white" stroke="black" d="M271.5,-1646C271.5,-1646 223.5,-1646 223.5,-1646 217.5,-1646 211.5,-1640 211.5,-1634 211.5,-1634 211.5,-1622 211.5,-1622 211.5,-1616 217.5,-1610 223.5,-1610 223.5,-1610 271.5,-1610 271.5,-1610 277.5,-1610 283.5,-1616 283.5,-1622 283.5,-1622 283.5,-1634 283.5,-1634 283.5,-1640 277.5,-1646 271.5,-1646"/>
<text text-anchor="middle" x="247.5" y="-1630.8" font-family="DejaVu Sans" font-size="9.00">XBVM1/R_WL</text>
<text text-anchor="middle" x="247.5" y="-1620.8" font-family="DejaVu Sans" font-size="9.00">[R] 20.0</text>
</g>
<!-- n_WL1 -->
<g id="node33" class="node">
<title>n_WL1</title>
<ellipse fill="#fffdf2" stroke="black" cx="603.19" cy="-1904" rx="27" ry="18"/>
<text text-anchor="middle" x="603.19" y="-1901.8" font-family="DejaVu Sans" font-size="9.00">WL1</text>
</g>
<!-- e_XBVM1_R_WL&#45;&gt;n_WL1 -->
<g id="edge1" class="edge">
<title>e_XBVM1_R_WL&#45;&gt;n_WL1</title>
<path fill="none" stroke="#65758b" d="M269.41,-1646.13C332.24,-1700.58 515,-1859 515,-1859 515,-1859 555.28,-1879.79 581.08,-1893.11"/>
<text text-anchor="middle" x="518" y="-1864.6" font-family="DejaVu Sans" font-size="8.00">a</text>
</g>
<!-- n_XBVM1_n_wl_0 -->
<g id="node48" class="node">
<title>n_XBVM1_n_wl_0</title>
<ellipse fill="#fffdf2" stroke="black" cx="603.19" cy="-1753" rx="45.07" ry="18"/>
<text text-anchor="middle" x="603.19" y="-1750.8" font-family="DejaVu Sans" font-size="9.00">XBVM1/n_wl_0</text>
</g>
<!-- e_XBVM1_R_WL&#45;&gt;n_XBVM1_n_wl_0 -->
<g id="edge2" class="edge">
<title>e_XBVM1_R_WL&#45;&gt;n_XBVM1_n_wl_0</title>
<path fill="none" stroke="#65758b" d="M283.61,-1643.81C355.98,-1676.4 515,-1748 515,-1748 515,-1748 536.63,-1749.24 558.34,-1750.49"/>
<text text-anchor="middle" x="518" y="-1750.6" font-family="DejaVu Sans" font-size="8.00">b</text>
</g>
<!-- e_XBVM1_L_PWL -->
<g id="node2" class="node">
<title>e_XBVM1_L_PWL</title>
<path fill="white" stroke="black" d="M273.5,-1528C273.5,-1528 221.5,-1528 221.5,-1528 215.5,-1528 209.5,-1522 209.5,-1516 209.5,-1516 209.5,-1504 209.5,-1504 209.5,-1498 215.5,-1492 221.5,-1492 221.5,-1492 273.5,-1492 273.5,-1492 279.5,-1492 285.5,-1498 285.5,-1504 285.5,-1504 285.5,-1516 285.5,-1516 285.5,-1522 279.5,-1528 273.5,-1528"/>
<text text-anchor="middle" x="247.5" y="-1512.8" font-family="DejaVu Sans" font-size="9.00">XBVM1/L_PWL</text>
<text text-anchor="middle" x="247.5" y="-1502.8" font-family="DejaVu Sans" font-size="9.00">[L] 0.5P</text>
</g>
<!-- n_XBVM1_N1 -->
<g id="node35" class="node">
<title>n_XBVM1_N1</title>
<ellipse fill="#fffdf2" stroke="black" cx="603.19" cy="-1479" rx="34.78" ry="18"/>
<text text-anchor="middle" x="603.19" y="-1476.8" font-family="DejaVu Sans" font-size="9.00">XBVM1/N1</text>
</g>
<!-- e_XBVM1_L_PWL&#45;&gt;n_XBVM1_N1 -->
<g id="edge4" class="edge">
<title>e_XBVM1_L_PWL&#45;&gt;n_XBVM1_N1</title>
<path fill="none" stroke="#65758b" d="M285.53,-1509.05C360.04,-1507.13 521,-1503 521,-1503 521,-1503 549.25,-1494.65 572.42,-1487.8"/>
<text text-anchor="middle" x="518" y="-1505.6" font-family="DejaVu Sans" font-size="8.00">b</text>
</g>
<!-- e_XBVM1_L_PWL&#45;&gt;n_XBVM1_n_wl_0 -->
<g id="edge3" class="edge">
<title>e_XBVM1_L_PWL&#45;&gt;n_XBVM1_n_wl_0</title>
<path fill="none" stroke="#65758b" d="M285.5,-1514.65C352.49,-1523.08 487,-1540 487,-1540 487,-1540 515,-1688 515,-1688 515,-1688 555.28,-1718.03 581.08,-1737.27"/>
<text text-anchor="middle" x="518" y="-1694.6" font-family="DejaVu Sans" font-size="8.00">a</text>
</g>
<!-- e_XBVM1_R_BL -->
<g id="node3" class="node">
<title>e_XBVM1_R_BL</title>
<path fill="white" stroke="black" d="M270,-1587C270,-1587 225,-1587 225,-1587 219,-1587 213,-1581 213,-1575 213,-1575 213,-1563 213,-1563 213,-1557 219,-1551 225,-1551 225,-1551 270,-1551 270,-1551 276,-1551 282,-1557 282,-1563 282,-1563 282,-1575 282,-1575 282,-1581 276,-1587 270,-1587"/>
<text text-anchor="middle" x="247.5" y="-1571.8" font-family="DejaVu Sans" font-size="9.00">XBVM1/R_BL</text>
<text text-anchor="middle" x="247.5" y="-1561.8" font-family="DejaVu Sans" font-size="9.00">[R] 20.0</text>
</g>
<!-- n_BL1 -->
<g id="node30" class="node">
<title>n_BL1</title>
<ellipse fill="#fffdf2" stroke="black" cx="603.19" cy="-1828" rx="27" ry="18"/>
<text text-anchor="middle" x="603.19" y="-1825.8" font-family="DejaVu Sans" font-size="9.00">BL1</text>
</g>
<!-- e_XBVM1_R_BL&#45;&gt;n_BL1 -->
<g id="edge5" class="edge">
<title>e_XBVM1_R_BL&#45;&gt;n_BL1</title>
<path fill="none" stroke="#65758b" d="M282.17,-1573.23C347.91,-1581.5 487,-1599 487,-1599 487,-1599 515,-1762 515,-1762 515,-1762 559.07,-1795.36 584.54,-1814.64"/>
<text text-anchor="middle" x="518" y="-1768.6" font-family="DejaVu Sans" font-size="8.00">a</text>
</g>
<!-- n_XBVM1_n_bl_0 -->
<g id="node41" class="node">
<title>n_XBVM1_n_bl_0</title>
<ellipse fill="#fffdf2" stroke="black" cx="603.19" cy="-1679" rx="43.76" ry="18"/>
<text text-anchor="middle" x="603.19" y="-1676.8" font-family="DejaVu Sans" font-size="9.00">XBVM1/n_bl_0</text>
</g>
<!-- e_XBVM1_R_BL&#45;&gt;n_XBVM1_n_bl_0 -->
<g id="edge6" class="edge">
<title>e_XBVM1_R_BL&#45;&gt;n_XBVM1_n_bl_0</title>
<path fill="none" stroke="#65758b" d="M282.17,-1573.23C347.91,-1581.5 487,-1599 487,-1599 487,-1599 515,-1674 515,-1674 515,-1674 537.48,-1675.29 559.62,-1676.56"/>
<text text-anchor="middle" x="518" y="-1676.6" font-family="DejaVu Sans" font-size="8.00">b</text>
</g>
<!-- e_XBVM1_L_PBL -->
<g id="node4" class="node">
<title>e_XBVM1_L_PBL</title>
<path fill="white" stroke="black" d="M272,-1469C272,-1469 223,-1469 223,-1469 217,-1469 211,-1463 211,-1457 211,-1457 211,-1445 211,-1445 211,-1439 217,-1433 223,-1433 223,-1433 272,-1433 272,-1433 278,-1433 284,-1439 284,-1445 284,-1445 284,-1457 284,-1457 284,-1463 278,-1469 272,-1469"/>
<text text-anchor="middle" x="247.5" y="-1453.8" font-family="DejaVu Sans" font-size="9.00">XBVM1/L_PBL</text>
<text text-anchor="middle" x="247.5" y="-1443.8" font-family="DejaVu Sans" font-size="9.00">[L] 0.5P</text>
</g>
<!-- e_XBVM1_L_PBL&#45;&gt;n_XBVM1_N1 -->
<g id="edge8" class="edge">
<title>e_XBVM1_L_PBL&#45;&gt;n_XBVM1_N1</title>
<path fill="none" stroke="#65758b" d="M284.21,-1455.49C350.74,-1463.86 487,-1481 487,-1481 487,-1481 515,-1489 515,-1489 515,-1489 521,-1489 521,-1489 521,-1489 546.69,-1485.84 569.17,-1483.07"/>
<text text-anchor="middle" x="518" y="-1491.6" font-family="DejaVu Sans" font-size="8.00">b</text>
</g>
<!-- e_XBVM1_L_PBL&#45;&gt;n_XBVM1_n_bl_0 -->
<g id="edge7" class="edge">
<title>e_XBVM1_L_PBL&#45;&gt;n_XBVM1_n_bl_0</title>
<path fill="none" stroke="#65758b" d="M284.21,-1455.49C350.74,-1463.86 487,-1481 487,-1481 487,-1481 515,-1637 515,-1637 515,-1637 548.63,-1653.2 574.12,-1665.48"/>
<text text-anchor="middle" x="518" y="-1641.6" font-family="DejaVu Sans" font-size="8.00">a</text>
</g>
<!-- e_XBVM1_B_JM1 -->
<g id="node5" class="node">
<title>e_XBVM1_B_JM1</title>
<path fill="white" stroke="black" d="M282.5,-1351C282.5,-1351 212.5,-1351 212.5,-1351 206.5,-1351 200.5,-1345 200.5,-1339 200.5,-1339 200.5,-1327 200.5,-1327 200.5,-1321 206.5,-1315 212.5,-1315 212.5,-1315 282.5,-1315 282.5,-1315 288.5,-1315 294.5,-1321 294.5,-1327 294.5,-1327 294.5,-1339 294.5,-1339 294.5,-1345 288.5,-1351 282.5,-1351"/>
<text text-anchor="middle" x="247.5" y="-1335.8" font-family="DejaVu Sans" font-size="9.00">XBVM1/B_JM1</text>
<text text-anchor="middle" x="247.5" y="-1325.8" font-family="DejaVu Sans" font-size="9.00">[B] jjmit area=1.2</text>
</g>
<!-- e_XBVM1_B_JM1&#45;&gt;n_XBVM1_N1 -->
<g id="edge9" class="edge">
<title>e_XBVM1_B_JM1&#45;&gt;n_XBVM1_N1</title>
<path fill="none" stroke="#65758b" d="M294.77,-1338.82C364.13,-1347.54 487,-1363 487,-1363 487,-1363 515,-1415 515,-1415 515,-1415 556.68,-1445.59 582.4,-1464.48"/>
<text text-anchor="middle" x="518" y="-1421.6" font-family="DejaVu Sans" font-size="8.00">a</text>
</g>
<!-- n_XBVM1_n_jm1o -->
<g id="node42" class="node">
<title>n_XBVM1_n_jm1o</title>
<ellipse fill="#fffdf2" stroke="black" cx="603.19" cy="-1331" rx="46.38" ry="18"/>
<text text-anchor="middle" x="603.19" y="-1328.8" font-family="DejaVu Sans" font-size="9.00">XBVM1/n_jm1o</text>
</g>
<!-- e_XBVM1_B_JM1&#45;&gt;n_XBVM1_n_jm1o -->
<g id="edge10" class="edge">
<title>e_XBVM1_B_JM1&#45;&gt;n_XBVM1_n_jm1o</title>
<path fill="none" stroke="#65758b" d="M294.74,-1332.74C362.8,-1332.35 489.19,-1331.64 556.78,-1331.26"/>
<text text-anchor="middle" x="518" y="-1333.6" font-family="DejaVu Sans" font-size="8.00">b</text>
</g>
<!-- e_XBVM1_R_JM1 -->
<g id="node6" class="node">
<title>e_XBVM1_R_JM1</title>
<path fill="white" stroke="black" d="M272.5,-1410C272.5,-1410 222.5,-1410 222.5,-1410 216.5,-1410 210.5,-1404 210.5,-1398 210.5,-1398 210.5,-1386 210.5,-1386 210.5,-1380 216.5,-1374 222.5,-1374 222.5,-1374 272.5,-1374 272.5,-1374 278.5,-1374 284.5,-1380 284.5,-1386 284.5,-1386 284.5,-1398 284.5,-1398 284.5,-1404 278.5,-1410 272.5,-1410"/>
<text text-anchor="middle" x="247.5" y="-1394.8" font-family="DejaVu Sans" font-size="9.00">XBVM1/R_JM1</text>
<text text-anchor="middle" x="247.5" y="-1384.8" font-family="DejaVu Sans" font-size="9.00">[R] 6</text>
</g>
<!-- e_XBVM1_R_JM1&#45;&gt;n_XBVM1_N1 -->
<g id="edge11" class="edge">
<title>e_XBVM1_R_JM1&#45;&gt;n_XBVM1_N1</title>
<path fill="none" stroke="#65758b" d="M284.72,-1396.56C351.44,-1404.95 487,-1422 487,-1422 487,-1422 515,-1452 515,-1452 515,-1452 547.79,-1462.16 573.16,-1470.01"/>
<text text-anchor="middle" x="518" y="-1455.6" font-family="DejaVu Sans" font-size="8.00">a</text>
</g>
<!-- e_XBVM1_R_JM1&#45;&gt;n_XBVM1_n_jm1o -->
<g id="edge12" class="edge">
<title>e_XBVM1_R_JM1&#45;&gt;n_XBVM1_n_jm1o</title>
<path fill="none" stroke="#65758b" d="M284.72,-1387.6C351.44,-1379.48 487,-1363 487,-1363 487,-1363 531.43,-1350.66 565.11,-1341.3"/>
<text text-anchor="middle" x="518" y="-1356.6" font-family="DejaVu Sans" font-size="8.00">b</text>
</g>
<!-- e_XBVM1_L_M1 -->
<g id="node7" class="node">
<title>e_XBVM1_L_M1</title>
<path fill="white" stroke="black" d="M270.5,-1174C270.5,-1174 224.5,-1174 224.5,-1174 218.5,-1174 212.5,-1168 212.5,-1162 212.5,-1162 212.5,-1150 212.5,-1150 212.5,-1144 218.5,-1138 224.5,-1138 224.5,-1138 270.5,-1138 270.5,-1138 276.5,-1138 282.5,-1144 282.5,-1150 282.5,-1150 282.5,-1162 282.5,-1162 282.5,-1168 276.5,-1174 270.5,-1174"/>
<text text-anchor="middle" x="247.5" y="-1158.8" font-family="DejaVu Sans" font-size="9.00">XBVM1/L_M1</text>
<text text-anchor="middle" x="247.5" y="-1148.8" font-family="DejaVu Sans" font-size="9.00">[L] 12.5P</text>
</g>
<!-- n_XBVM1_0 -->
<g id="node34" class="node">
<title>n_XBVM1_0</title>
<ellipse fill="#fffdf2" stroke="black" cx="603.19" cy="-1079" rx="30.7" ry="18"/>
<text text-anchor="middle" x="603.19" y="-1076.8" font-family="DejaVu Sans" font-size="9.00">XBVM1/0</text>
</g>
<!-- e_XBVM1_L_M1&#45;&gt;n_XBVM1_0 -->
<g id="edge14" class="edge">
<title>e_XBVM1_L_M1&#45;&gt;n_XBVM1_0</title>
<path fill="none" stroke="#65758b" d="M282.67,-1151.85C348.62,-1143.83 487,-1127 487,-1127 487,-1127 515,-1110 515,-1110 515,-1110 550.78,-1097.28 576.5,-1088.13"/>
<text text-anchor="middle" x="518" y="-1112.6" font-family="DejaVu Sans" font-size="8.00">b</text>
</g>
<!-- e_XBVM1_L_M1&#45;&gt;n_XBVM1_n_jm1o -->
<g id="edge13" class="edge">
<title>e_XBVM1_L_M1&#45;&gt;n_XBVM1_n_jm1o</title>
<path fill="none" stroke="#65758b" d="M282.67,-1160.3C348.62,-1168.59 487,-1186 487,-1186 487,-1186 515,-1246 515,-1246 515,-1246 559.55,-1289.44 584.96,-1314.21"/>
<text text-anchor="middle" x="518" y="-1253.6" font-family="DejaVu Sans" font-size="8.00">a</text>
</g>
<!-- e_XBVM1_L_M2 -->
<g id="node8" class="node">
<title>e_XBVM1_L_M2</title>
<path fill="white" stroke="black" d="M270.5,-1233C270.5,-1233 224.5,-1233 224.5,-1233 218.5,-1233 212.5,-1227 212.5,-1221 212.5,-1221 212.5,-1209 212.5,-1209 212.5,-1203 218.5,-1197 224.5,-1197 224.5,-1197 270.5,-1197 270.5,-1197 276.5,-1197 282.5,-1203 282.5,-1209 282.5,-1209 282.5,-1221 282.5,-1221 282.5,-1227 276.5,-1233 270.5,-1233"/>
<text text-anchor="middle" x="247.5" y="-1217.8" font-family="DejaVu Sans" font-size="9.00">XBVM1/L_M2</text>
<text text-anchor="middle" x="247.5" y="-1207.8" font-family="DejaVu Sans" font-size="9.00">[L] 24.5P</text>
</g>
<!-- e_XBVM1_L_M2&#45;&gt;n_XBVM1_N1 -->
<g id="edge15" class="edge">
<title>e_XBVM1_L_M2&#45;&gt;n_XBVM1_N1</title>
<path fill="none" stroke="#65758b" d="M282.67,-1219.3C348.62,-1227.59 487,-1245 487,-1245 487,-1245 515,-1368 515,-1368 515,-1368 564.56,-1431.09 588.95,-1462.14"/>
<text text-anchor="middle" x="518" y="-1377.6" font-family="DejaVu Sans" font-size="8.00">a</text>
</g>
<!-- n_XBVM1_n_jm2i -->
<g id="node43" class="node">
<title>n_XBVM1_n_jm2i</title>
<ellipse fill="#fffdf2" stroke="black" cx="603.19" cy="-1238" rx="44.41" ry="18"/>
<text text-anchor="middle" x="603.19" y="-1235.8" font-family="DejaVu Sans" font-size="9.00">XBVM1/n_jm2i</text>
</g>
<!-- e_XBVM1_L_M2&#45;&gt;n_XBVM1_n_jm2i -->
<g id="edge16" class="edge">
<title>e_XBVM1_L_M2&#45;&gt;n_XBVM1_n_jm2i</title>
<path fill="none" stroke="#65758b" d="M282.73,-1217.23C347.57,-1221.44 488.14,-1230.58 559.21,-1235.2"/>
<text text-anchor="middle" x="518" y="-1234.6" font-family="DejaVu Sans" font-size="8.00">b</text>
</g>
<!-- e_XBVM1_B_JM2 -->
<g id="node9" class="node">
<title>e_XBVM1_B_JM2</title>
<path fill="white" stroke="black" d="M282.5,-1115C282.5,-1115 212.5,-1115 212.5,-1115 206.5,-1115 200.5,-1109 200.5,-1103 200.5,-1103 200.5,-1091 200.5,-1091 200.5,-1085 206.5,-1079 212.5,-1079 212.5,-1079 282.5,-1079 282.5,-1079 288.5,-1079 294.5,-1085 294.5,-1091 294.5,-1091 294.5,-1103 294.5,-1103 294.5,-1109 288.5,-1115 282.5,-1115"/>
<text text-anchor="middle" x="247.5" y="-1099.8" font-family="DejaVu Sans" font-size="9.00">XBVM1/B_JM2</text>
<text text-anchor="middle" x="247.5" y="-1089.8" font-family="DejaVu Sans" font-size="9.00">[B] jjmit area=1.4</text>
</g>
<!-- n_XBVM1_N2 -->
<g id="node36" class="node">
<title>n_XBVM1_N2</title>
<ellipse fill="#fffdf2" stroke="black" cx="603.19" cy="-998" rx="34.78" ry="18"/>
<text text-anchor="middle" x="603.19" y="-995.8" font-family="DejaVu Sans" font-size="9.00">XBVM1/N2</text>
</g>
<!-- e_XBVM1_B_JM2&#45;&gt;n_XBVM1_N2 -->
<g id="edge18" class="edge">
<title>e_XBVM1_B_JM2&#45;&gt;n_XBVM1_N2</title>
<path fill="none" stroke="#65758b" d="M294.77,-1091.37C364.13,-1082.94 487,-1068 487,-1068 487,-1068 546.51,-1031.84 579.98,-1011.5"/>
<text text-anchor="middle" x="518" y="-1051.6" font-family="DejaVu Sans" font-size="8.00">b</text>
</g>
<!-- e_XBVM1_B_JM2&#45;&gt;n_XBVM1_n_jm2i -->
<g id="edge17" class="edge">
<title>e_XBVM1_B_JM2&#45;&gt;n_XBVM1_n_jm2i</title>
<path fill="none" stroke="#65758b" d="M294.77,-1102.82C364.13,-1111.54 487,-1127 487,-1127 487,-1127 515,-1193 515,-1193 515,-1193 549.48,-1210.8 575.08,-1224.01"/>
<text text-anchor="middle" x="518" y="-1198.6" font-family="DejaVu Sans" font-size="8.00">a</text>
</g>
<!-- e_XBVM1_L_M3 -->
<g id="node10" class="node">
<title>e_XBVM1_L_M3</title>
<path fill="white" stroke="black" d="M270.5,-938C270.5,-938 224.5,-938 224.5,-938 218.5,-938 212.5,-932 212.5,-926 212.5,-926 212.5,-914 212.5,-914 212.5,-908 218.5,-902 224.5,-902 224.5,-902 270.5,-902 270.5,-902 276.5,-902 282.5,-908 282.5,-914 282.5,-914 282.5,-926 282.5,-926 282.5,-932 276.5,-938 270.5,-938"/>
<text text-anchor="middle" x="247.5" y="-922.8" font-family="DejaVu Sans" font-size="9.00">XBVM1/L_M3</text>
<text text-anchor="middle" x="247.5" y="-912.8" font-family="DejaVu Sans" font-size="9.00">[L] 8.5P</text>
</g>
<!-- e_XBVM1_L_M3&#45;&gt;n_XBVM1_N2 -->
<g id="edge19" class="edge">
<title>e_XBVM1_L_M3&#45;&gt;n_XBVM1_N2</title>
<path fill="none" stroke="#65758b" d="M282.67,-924.3C348.62,-932.59 487,-950 487,-950 487,-950 515,-971 515,-971 515,-971 547.79,-981.16 573.16,-989.01"/>
<text text-anchor="middle" x="518" y="-974.6" font-family="DejaVu Sans" font-size="8.00">a</text>
</g>
<!-- n_XBVM1_N5 -->
<g id="node38" class="node">
<title>n_XBVM1_N5</title>
<ellipse fill="#fffdf2" stroke="black" cx="603.19" cy="-887" rx="34.78" ry="18"/>
<text text-anchor="middle" x="603.19" y="-884.8" font-family="DejaVu Sans" font-size="9.00">XBVM1/N5</text>
</g>
<!-- e_XBVM1_L_M3&#45;&gt;n_XBVM1_N5 -->
<g id="edge20" class="edge">
<title>e_XBVM1_L_M3&#45;&gt;n_XBVM1_N5</title>
<path fill="none" stroke="#65758b" d="M282.52,-915.91C354.37,-907.29 515,-888 515,-888 515,-888 543.94,-887.67 568.48,-887.39"/>
<text text-anchor="middle" x="518" y="-890.6" font-family="DejaVu Sans" font-size="8.00">b</text>
</g>
<!-- e_XBVM1_L_PM -->
<g id="node11" class="node">
<title>e_XBVM1_L_PM</title>
<path fill="white" stroke="black" d="M270.5,-1056C270.5,-1056 224.5,-1056 224.5,-1056 218.5,-1056 212.5,-1050 212.5,-1044 212.5,-1044 212.5,-1032 212.5,-1032 212.5,-1026 218.5,-1020 224.5,-1020 224.5,-1020 270.5,-1020 270.5,-1020 276.5,-1020 282.5,-1026 282.5,-1032 282.5,-1032 282.5,-1044 282.5,-1044 282.5,-1050 276.5,-1056 270.5,-1056"/>
<text text-anchor="middle" x="247.5" y="-1040.8" font-family="DejaVu Sans" font-size="9.00">XBVM1/L_PM</text>
<text text-anchor="middle" x="247.5" y="-1030.8" font-family="DejaVu Sans" font-size="9.00">[L] 0.5P</text>
</g>
<!-- e_XBVM1_L_PM&#45;&gt;n_XBVM1_0 -->
<g id="edge22" class="edge">
<title>e_XBVM1_L_PM&#45;&gt;n_XBVM1_0</title>
<path fill="none" stroke="#65758b" d="M282.73,-1041.97C352.08,-1050.01 508.05,-1068.09 572.97,-1075.61"/>
<text text-anchor="middle" x="518" y="-1071.6" font-family="DejaVu Sans" font-size="8.00">b</text>
</g>
<!-- e_XBVM1_L_PM&#45;&gt;n_XBVM1_N5 -->
<g id="edge21" class="edge">
<title>e_XBVM1_L_PM&#45;&gt;n_XBVM1_N5</title>
<path fill="none" stroke="#65758b" d="M282.67,-1033.85C348.62,-1025.83 487,-1009 487,-1009 487,-1009 515,-925 515,-925 515,-925 550.35,-909.59 576.03,-898.4"/>
<text text-anchor="middle" x="518" y="-927.6" font-family="DejaVu Sans" font-size="8.00">a</text>
</g>
<!-- e_XBVM1_L_S1 -->
<g id="node12" class="node">
<title>e_XBVM1_L_S1</title>
<path fill="white" stroke="black" d="M270,-879C270,-879 225,-879 225,-879 219,-879 213,-873 213,-867 213,-867 213,-855 213,-855 213,-849 219,-843 225,-843 225,-843 270,-843 270,-843 276,-843 282,-849 282,-855 282,-855 282,-867 282,-867 282,-873 276,-879 270,-879"/>
<text text-anchor="middle" x="247.5" y="-863.8" font-family="DejaVu Sans" font-size="9.00">XBVM1/L_S1</text>
<text text-anchor="middle" x="247.5" y="-853.8" font-family="DejaVu Sans" font-size="9.00">[L] 0.5P</text>
</g>
<!-- e_XBVM1_L_S1&#45;&gt;n_XBVM1_N2 -->
<g id="edge23" class="edge">
<title>e_XBVM1_L_S1&#45;&gt;n_XBVM1_N2</title>
<path fill="none" stroke="#65758b" d="M282.17,-865.23C347.91,-873.5 487,-891 487,-891 487,-891 515,-934 515,-934 515,-934 556.68,-964.59 582.4,-983.48"/>
<text text-anchor="middle" x="518" y="-940.6" font-family="DejaVu Sans" font-size="8.00">a</text>
</g>
<!-- n_XBVM1_n_js1p -->
<g id="node44" class="node">
<title>n_XBVM1_n_js1p</title>
<ellipse fill="#fffdf2" stroke="black" cx="603.19" cy="-794" rx="43.76" ry="18"/>
<text text-anchor="middle" x="603.19" y="-791.8" font-family="DejaVu Sans" font-size="9.00">XBVM1/n_js1p</text>
</g>
<!-- e_XBVM1_L_S1&#45;&gt;n_XBVM1_n_js1p -->
<g id="edge24" class="edge">
<title>e_XBVM1_L_S1&#45;&gt;n_XBVM1_n_js1p</title>
<path fill="none" stroke="#65758b" d="M282.17,-856.91C347.91,-848.91 487,-832 487,-832 487,-832 515,-814 515,-814 515,-814 540.89,-808.06 564.45,-802.66"/>
<text text-anchor="middle" x="518" y="-816.6" font-family="DejaVu Sans" font-size="8.00">b</text>
</g>
<!-- e_XBVM1_B_JS1 -->
<g id="node13" class="node">
<title>e_XBVM1_B_JS1</title>
<path fill="white" stroke="black" d="M285.5,-761C285.5,-761 209.5,-761 209.5,-761 203.5,-761 197.5,-755 197.5,-749 197.5,-749 197.5,-737 197.5,-737 197.5,-731 203.5,-725 209.5,-725 209.5,-725 285.5,-725 285.5,-725 291.5,-725 297.5,-731 297.5,-737 297.5,-737 297.5,-749 297.5,-749 297.5,-755 291.5,-761 285.5,-761"/>
<text text-anchor="middle" x="247.5" y="-745.8" font-family="DejaVu Sans" font-size="9.00">XBVM1/B_JS1</text>
<text text-anchor="middle" x="247.5" y="-735.8" font-family="DejaVu Sans" font-size="9.00">[B] jjmit area=0.74</text>
</g>
<!-- n_XBVM1_N3 -->
<g id="node37" class="node">
<title>n_XBVM1_N3</title>
<ellipse fill="#fffdf2" stroke="black" cx="603.19" cy="-683" rx="34.78" ry="18"/>
<text text-anchor="middle" x="603.19" y="-680.8" font-family="DejaVu Sans" font-size="9.00">XBVM1/N3</text>
</g>
<!-- e_XBVM1_B_JS1&#45;&gt;n_XBVM1_N3 -->
<g id="edge26" class="edge">
<title>e_XBVM1_B_JS1&#45;&gt;n_XBVM1_N3</title>
<path fill="none" stroke="#65758b" d="M297.63,-737.03C367.45,-728.54 487,-714 487,-714 487,-714 515,-703 515,-703 515,-703 546.14,-695.86 571.2,-690.11"/>
<text text-anchor="middle" x="518" y="-705.6" font-family="DejaVu Sans" font-size="8.00">b</text>
</g>
<!-- e_XBVM1_B_JS1&#45;&gt;n_XBVM1_n_js1p -->
<g id="edge25" class="edge">
<title>e_XBVM1_B_JS1&#45;&gt;n_XBVM1_n_js1p</title>
<path fill="none" stroke="#65758b" d="M297.53,-749.12C375.99,-758.91 521,-777 521,-777 521,-777 542.59,-781.52 563.5,-785.9"/>
<text text-anchor="middle" x="518" y="-779.6" font-family="DejaVu Sans" font-size="8.00">a</text>
</g>
<!-- e_XBVM1_R_SE -->
<g id="node14" class="node">
<title>e_XBVM1_R_SE</title>
<path fill="white" stroke="black" d="M270.5,-1292C270.5,-1292 224.5,-1292 224.5,-1292 218.5,-1292 212.5,-1286 212.5,-1280 212.5,-1280 212.5,-1268 212.5,-1268 212.5,-1262 218.5,-1256 224.5,-1256 224.5,-1256 270.5,-1256 270.5,-1256 276.5,-1256 282.5,-1262 282.5,-1268 282.5,-1268 282.5,-1280 282.5,-1280 282.5,-1286 276.5,-1292 270.5,-1292"/>
<text text-anchor="middle" x="247.5" y="-1276.8" font-family="DejaVu Sans" font-size="9.00">XBVM1/R_SE</text>
<text text-anchor="middle" x="247.5" y="-1266.8" font-family="DejaVu Sans" font-size="9.00">[R] 20.0</text>
</g>
<!-- n_SE1 -->
<g id="node31" class="node">
<title>n_SE1</title>
<ellipse fill="#fffdf2" stroke="black" cx="603.19" cy="-1597" rx="27" ry="18"/>
<text text-anchor="middle" x="603.19" y="-1594.8" font-family="DejaVu Sans" font-size="9.00">SE1</text>
</g>
<!-- e_XBVM1_R_SE&#45;&gt;n_SE1 -->
<g id="edge27" class="edge">
<title>e_XBVM1_R_SE&#45;&gt;n_SE1</title>
<path fill="none" stroke="#65758b" d="M282.67,-1278.3C348.62,-1286.59 487,-1304 487,-1304 487,-1304 515,-1517 515,-1517 515,-1517 561.52,-1559.69 586.6,-1582.7"/>
<text text-anchor="middle" x="518" y="-1524.6" font-family="DejaVu Sans" font-size="8.00">a</text>
</g>
<!-- n_XBVM1_n_se_0 -->
<g id="node47" class="node">
<title>n_XBVM1_n_se_0</title>
<ellipse fill="#fffdf2" stroke="black" cx="603.19" cy="-1162" rx="45.07" ry="18"/>
<text text-anchor="middle" x="603.19" y="-1159.8" font-family="DejaVu Sans" font-size="9.00">XBVM1/n_se_0</text>
</g>
<!-- e_XBVM1_R_SE&#45;&gt;n_XBVM1_n_se_0 -->
<g id="edge28" class="edge">
<title>e_XBVM1_R_SE&#45;&gt;n_XBVM1_n_se_0</title>
<path fill="none" stroke="#65758b" d="M282.67,-1269.85C348.62,-1261.83 487,-1245 487,-1245 487,-1245 515,-1184 515,-1184 515,-1184 541.08,-1177.42 564.71,-1171.46"/>
<text text-anchor="middle" x="518" y="-1186.6" font-family="DejaVu Sans" font-size="8.00">b</text>
</g>
<!-- e_XBVM1_L_PSE -->
<g id="node15" class="node">
<title>e_XBVM1_L_PSE</title>
<path fill="white" stroke="black" d="M272.5,-997C272.5,-997 222.5,-997 222.5,-997 216.5,-997 210.5,-991 210.5,-985 210.5,-985 210.5,-973 210.5,-973 210.5,-967 216.5,-961 222.5,-961 222.5,-961 272.5,-961 272.5,-961 278.5,-961 284.5,-967 284.5,-973 284.5,-973 284.5,-985 284.5,-985 284.5,-991 278.5,-997 272.5,-997"/>
<text text-anchor="middle" x="247.5" y="-981.8" font-family="DejaVu Sans" font-size="9.00">XBVM1/L_PSE</text>
<text text-anchor="middle" x="247.5" y="-971.8" font-family="DejaVu Sans" font-size="9.00">[L] 0.5P</text>
</g>
<!-- e_XBVM1_L_PSE&#45;&gt;n_XBVM1_N3 -->
<g id="edge30" class="edge">
<title>e_XBVM1_L_PSE&#45;&gt;n_XBVM1_N3</title>
<path fill="none" stroke="#65758b" d="M284.72,-974.6C351.44,-966.48 487,-950 487,-950 487,-950 515,-762 515,-762 515,-762 559.55,-721.63 584.96,-698.61"/>
<text text-anchor="middle" x="518" y="-764.6" font-family="DejaVu Sans" font-size="8.00">b</text>
</g>
<!-- e_XBVM1_L_PSE&#45;&gt;n_XBVM1_n_se_0 -->
<g id="edge29" class="edge">
<title>e_XBVM1_L_PSE&#45;&gt;n_XBVM1_n_se_0</title>
<path fill="none" stroke="#65758b" d="M284.72,-983.56C351.44,-991.95 487,-1009 487,-1009 487,-1009 515,-1119 515,-1119 515,-1119 548.63,-1135.59 574.12,-1148.16"/>
<text text-anchor="middle" x="518" y="-1123.6" font-family="DejaVu Sans" font-size="8.00">a</text>
</g>
<!-- e_XBVM1_R_S -->
<g id="node16" class="node">
<title>e_XBVM1_R_S</title>
<path fill="white" stroke="black" d="M267.5,-643C267.5,-643 227.5,-643 227.5,-643 221.5,-643 215.5,-637 215.5,-631 215.5,-631 215.5,-619 215.5,-619 215.5,-613 221.5,-607 227.5,-607 227.5,-607 267.5,-607 267.5,-607 273.5,-607 279.5,-613 279.5,-619 279.5,-619 279.5,-631 279.5,-631 279.5,-637 273.5,-643 267.5,-643"/>
<text text-anchor="middle" x="247.5" y="-627.8" font-family="DejaVu Sans" font-size="9.00">XBVM1/R_S</text>
<text text-anchor="middle" x="247.5" y="-617.8" font-family="DejaVu Sans" font-size="9.00">[R] 3.0</text>
</g>
<!-- e_XBVM1_R_S&#45;&gt;n_XBVM1_N3 -->
<g id="edge31" class="edge">
<title>e_XBVM1_R_S&#45;&gt;n_XBVM1_N3</title>
<path fill="none" stroke="#65758b" d="M279.76,-628.1C351.34,-635.19 521,-652 521,-652 521,-652 551.15,-663.51 574.7,-672.5"/>
<text text-anchor="middle" x="518" y="-654.6" font-family="DejaVu Sans" font-size="8.00">a</text>
</g>
<!-- n_XBVM1_N6 -->
<g id="node39" class="node">
<title>n_XBVM1_N6</title>
<ellipse fill="#fffdf2" stroke="black" cx="603.19" cy="-461" rx="34.78" ry="18"/>
<text text-anchor="middle" x="603.19" y="-458.8" font-family="DejaVu Sans" font-size="9.00">XBVM1/N6</text>
</g>
<!-- e_XBVM1_R_S&#45;&gt;n_XBVM1_N6 -->
<g id="edge32" class="edge">
<title>e_XBVM1_R_S&#45;&gt;n_XBVM1_N6</title>
<path fill="none" stroke="#65758b" d="M279.68,-621.21C344.33,-613.35 487,-596 487,-596 487,-596 515,-481 515,-481 515,-481 546.14,-473.86 571.2,-468.11"/>
<text text-anchor="middle" x="518" y="-483.6" font-family="DejaVu Sans" font-size="8.00">b</text>
</g>
<!-- e_XBVM1_L_S3 -->
<g id="node17" class="node">
<title>e_XBVM1_L_S3</title>
<path fill="white" stroke="black" d="M270,-702C270,-702 225,-702 225,-702 219,-702 213,-696 213,-690 213,-690 213,-678 213,-678 213,-672 219,-666 225,-666 225,-666 270,-666 270,-666 276,-666 282,-672 282,-678 282,-678 282,-690 282,-690 282,-696 276,-702 270,-702"/>
<text text-anchor="middle" x="247.5" y="-686.8" font-family="DejaVu Sans" font-size="9.00">XBVM1/L_S3</text>
<text text-anchor="middle" x="247.5" y="-676.8" font-family="DejaVu Sans" font-size="9.00">[L] 0.5P</text>
</g>
<!-- e_XBVM1_L_S3&#45;&gt;n_XBVM1_N3 -->
<g id="edge33" class="edge">
<title>e_XBVM1_L_S3&#45;&gt;n_XBVM1_N3</title>
<path fill="none" stroke="#65758b" d="M282.25,-681.72C353.96,-676.88 515,-666 515,-666 515,-666 521,-666 521,-666 521,-666 547.77,-671.61 570.57,-676.38"/>
<text text-anchor="middle" x="518" y="-668.6" font-family="DejaVu Sans" font-size="8.00">a</text>
</g>
<!-- e_XBVM1_L_S3&#45;&gt;n_XBVM1_N6 -->
<g id="edge34" class="edge">
<title>e_XBVM1_L_S3&#45;&gt;n_XBVM1_N6</title>
<path fill="none" stroke="#65758b" d="M282.17,-679.91C347.91,-671.91 487,-655 487,-655 487,-655 515,-541 515,-541 515,-541 559.55,-500.12 584.96,-476.81"/>
<text text-anchor="middle" x="518" y="-543.6" font-family="DejaVu Sans" font-size="8.00">b</text>
</g>
<!-- e_XBVM1_L_S2 -->
<g id="node18" class="node">
<title>e_XBVM1_L_S2</title>
<path fill="white" stroke="black" d="M270,-820C270,-820 225,-820 225,-820 219,-820 213,-814 213,-808 213,-808 213,-796 213,-796 213,-790 219,-784 225,-784 225,-784 270,-784 270,-784 276,-784 282,-790 282,-796 282,-796 282,-808 282,-808 282,-814 276,-820 270,-820"/>
<text text-anchor="middle" x="247.5" y="-804.8" font-family="DejaVu Sans" font-size="9.00">XBVM1/L_S2</text>
<text text-anchor="middle" x="247.5" y="-794.8" font-family="DejaVu Sans" font-size="9.00">[L] 0.5P</text>
</g>
<!-- e_XBVM1_L_S2&#45;&gt;n_XBVM1_N5 -->
<g id="edge35" class="edge">
<title>e_XBVM1_L_S2&#45;&gt;n_XBVM1_N5</title>
<path fill="none" stroke="#65758b" d="M282.17,-806.23C347.91,-814.5 487,-832 487,-832 487,-832 543.32,-858.89 577.19,-875.07"/>
<text text-anchor="middle" x="518" y="-848.6" font-family="DejaVu Sans" font-size="8.00">a</text>
</g>
<!-- n_XBVM1_n_js2p -->
<g id="node45" class="node">
<title>n_XBVM1_n_js2p</title>
<ellipse fill="#fffdf2" stroke="black" cx="603.19" cy="-572" rx="43.76" ry="18"/>
<text text-anchor="middle" x="603.19" y="-569.8" font-family="DejaVu Sans" font-size="9.00">XBVM1/n_js2p</text>
</g>
<!-- e_XBVM1_L_S2&#45;&gt;n_XBVM1_n_js2p -->
<g id="edge36" class="edge">
<title>e_XBVM1_L_S2&#45;&gt;n_XBVM1_n_js2p</title>
<path fill="none" stroke="#65758b" d="M282.17,-797.91C347.91,-789.91 487,-773 487,-773 487,-773 515,-637 515,-637 515,-637 555.28,-606.97 581.08,-587.73"/>
<text text-anchor="middle" x="518" y="-639.6" font-family="DejaVu Sans" font-size="8.00">b</text>
</g>
<!-- e_XBVM1_B_JS2 -->
<g id="node19" class="node">
<title>e_XBVM1_B_JS2</title>
<path fill="white" stroke="black" d="M285.5,-584C285.5,-584 209.5,-584 209.5,-584 203.5,-584 197.5,-578 197.5,-572 197.5,-572 197.5,-560 197.5,-560 197.5,-554 203.5,-548 209.5,-548 209.5,-548 285.5,-548 285.5,-548 291.5,-548 297.5,-554 297.5,-560 297.5,-560 297.5,-572 297.5,-572 297.5,-578 291.5,-584 285.5,-584"/>
<text text-anchor="middle" x="247.5" y="-568.8" font-family="DejaVu Sans" font-size="9.00">XBVM1/B_JS2</text>
<text text-anchor="middle" x="247.5" y="-558.8" font-family="DejaVu Sans" font-size="9.00">[B] jjmit area=0.74</text>
</g>
<!-- e_XBVM1_B_JS2&#45;&gt;n_XBVM1_N6 -->
<g id="edge38" class="edge">
<title>e_XBVM1_B_JS2&#45;&gt;n_XBVM1_N6</title>
<path fill="none" stroke="#65758b" d="M297.63,-560.03C367.45,-551.54 487,-537 487,-537 487,-537 515,-444 515,-444 515,-444 521,-444 521,-444 521,-444 547.77,-449.61 570.57,-454.38"/>
<text text-anchor="middle" x="518" y="-446.6" font-family="DejaVu Sans" font-size="8.00">b</text>
</g>
<!-- e_XBVM1_B_JS2&#45;&gt;n_XBVM1_n_js2p -->
<g id="edge37" class="edge">
<title>e_XBVM1_B_JS2&#45;&gt;n_XBVM1_n_js2p</title>
<path fill="none" stroke="#65758b" d="M297.69,-563.97C374.69,-560.79 515,-555 515,-555 515,-555 521,-555 521,-555 521,-555 542.59,-559.52 563.5,-563.9"/>
<text text-anchor="middle" x="518" y="-557.6" font-family="DejaVu Sans" font-size="8.00">a</text>
</g>
<!-- e_XBVM1_L_PSL -->
<g id="node20" class="node">
<title>e_XBVM1_L_PSL</title>
<path fill="white" stroke="black" d="M272,-525C272,-525 223,-525 223,-525 217,-525 211,-519 211,-513 211,-513 211,-501 211,-501 211,-495 217,-489 223,-489 223,-489 272,-489 272,-489 278,-489 284,-495 284,-501 284,-501 284,-513 284,-513 284,-519 278,-525 272,-525"/>
<text text-anchor="middle" x="247.5" y="-509.8" font-family="DejaVu Sans" font-size="9.00">XBVM1/L_PSL</text>
<text text-anchor="middle" x="247.5" y="-499.8" font-family="DejaVu Sans" font-size="9.00">[L] 0.5P</text>
</g>
<!-- e_XBVM1_L_PSL&#45;&gt;n_XBVM1_N6 -->
<g id="edge39" class="edge">
<title>e_XBVM1_L_PSL&#45;&gt;n_XBVM1_N6</title>
<path fill="none" stroke="#65758b" d="M284.21,-502.66C350.74,-494.57 487,-478 487,-478 487,-478 515,-407 515,-407 515,-407 521,-407 521,-407 521,-407 556.8,-430.81 580.86,-446.81"/>
<text text-anchor="middle" x="518" y="-409.6" font-family="DejaVu Sans" font-size="8.00">a</text>
</g>
<!-- n_XBVM1_n_psl -->
<g id="node46" class="node">
<title>n_XBVM1_n_psl</title>
<ellipse fill="#fffdf2" stroke="black" cx="603.19" cy="-350" rx="40.33" ry="18"/>
<text text-anchor="middle" x="603.19" y="-347.8" font-family="DejaVu Sans" font-size="9.00">XBVM1/n_psl</text>
</g>
<!-- e_XBVM1_L_PSL&#45;&gt;n_XBVM1_n_psl -->
<g id="edge40" class="edge">
<title>e_XBVM1_L_PSL&#45;&gt;n_XBVM1_n_psl</title>
<path fill="none" stroke="#65758b" d="M284.21,-502.66C350.74,-494.57 487,-478 487,-478 487,-478 515,-393 515,-393 515,-393 549.91,-375.78 575.55,-363.14"/>
<text text-anchor="middle" x="518" y="-395.6" font-family="DejaVu Sans" font-size="8.00">b</text>
</g>
<!-- e_XBVM1_R_SL -->
<g id="node21" class="node">
<title>e_XBVM1_R_SL</title>
<path fill="white" stroke="black" d="M270,-466C270,-466 225,-466 225,-466 219,-466 213,-460 213,-454 213,-454 213,-442 213,-442 213,-436 219,-430 225,-430 225,-430 270,-430 270,-430 276,-430 282,-436 282,-442 282,-442 282,-454 282,-454 282,-460 276,-466 270,-466"/>
<text text-anchor="middle" x="247.5" y="-450.8" font-family="DejaVu Sans" font-size="9.00">XBVM1/R_SL</text>
<text text-anchor="middle" x="247.5" y="-440.8" font-family="DejaVu Sans" font-size="9.00">[R] 12.0</text>
</g>
<!-- n_XBVM1_N8 -->
<g id="node40" class="node">
<title>n_XBVM1_N8</title>
<ellipse fill="#fffdf2" stroke="black" cx="603.19" cy="-274" rx="34.78" ry="18"/>
<text text-anchor="middle" x="603.19" y="-271.8" font-family="DejaVu Sans" font-size="9.00">XBVM1/N8</text>
</g>
<!-- e_XBVM1_R_SL&#45;&gt;n_XBVM1_N8 -->
<g id="edge42" class="edge">
<title>e_XBVM1_R_SL&#45;&gt;n_XBVM1_N8</title>
<path fill="none" stroke="#65758b" d="M282.17,-443.91C347.91,-435.91 487,-419 487,-419 487,-419 515,-319 515,-319 515,-319 552.1,-299.85 577.9,-286.54"/>
<text text-anchor="middle" x="518" y="-321.6" font-family="DejaVu Sans" font-size="8.00">b</text>
</g>
<!-- e_XBVM1_R_SL&#45;&gt;n_XBVM1_n_psl -->
<g id="edge41" class="edge">
<title>e_XBVM1_R_SL&#45;&gt;n_XBVM1_n_psl</title>
<path fill="none" stroke="#65758b" d="M282.17,-443.91C347.91,-435.91 487,-419 487,-419 487,-419 515,-333 515,-333 515,-333 521,-333 521,-333 521,-333 544.59,-337.94 566.34,-342.49"/>
<text text-anchor="middle" x="518" y="-335.6" font-family="DejaVu Sans" font-size="8.00">a</text>
</g>
<!-- e_XBVM1_L_SL -->
<g id="node22" class="node">
<title>e_XBVM1_L_SL</title>
<path fill="white" stroke="black" d="M269.5,-407C269.5,-407 225.5,-407 225.5,-407 219.5,-407 213.5,-401 213.5,-395 213.5,-395 213.5,-383 213.5,-383 213.5,-377 219.5,-371 225.5,-371 225.5,-371 269.5,-371 269.5,-371 275.5,-371 281.5,-377 281.5,-383 281.5,-383 281.5,-395 281.5,-395 281.5,-401 275.5,-407 269.5,-407"/>
<text text-anchor="middle" x="247.5" y="-391.8" font-family="DejaVu Sans" font-size="9.00">XBVM1/L_SL</text>
<text text-anchor="middle" x="247.5" y="-381.8" font-family="DejaVu Sans" font-size="9.00">[L] 0.4P</text>
</g>
<!-- n_SL1 -->
<g id="node32" class="node">
<title>n_SL1</title>
<ellipse fill="#fffdf2" stroke="black" cx="603.19" cy="-199" rx="27" ry="18"/>
<text text-anchor="middle" x="603.19" y="-196.8" font-family="DejaVu Sans" font-size="9.00">SL1</text>
</g>
<!-- e_XBVM1_L_SL&#45;&gt;n_SL1 -->
<g id="edge44" class="edge">
<title>e_XBVM1_L_SL&#45;&gt;n_SL1</title>
<path fill="none" stroke="#65758b" d="M281.71,-371.05C353.15,-332.45 515,-245 515,-245 515,-245 555.74,-223.5 581.53,-209.9"/>
<text text-anchor="middle" x="518" y="-247.6" font-family="DejaVu Sans" font-size="8.00">b</text>
</g>
<!-- e_XBVM1_L_SL&#45;&gt;n_XBVM1_N8 -->
<g id="edge43" class="edge">
<title>e_XBVM1_L_SL&#45;&gt;n_XBVM1_N8</title>
<path fill="none" stroke="#65758b" d="M281.71,-372.8C353.15,-337.95 515,-259 515,-259 515,-259 521,-259 521,-259 521,-259 547.41,-263.88 570.1,-268.07"/>
<text text-anchor="middle" x="518" y="-261.6" font-family="DejaVu Sans" font-size="8.00">a</text>
</g>
<!-- e_XTRIG_R_IN -->
<g id="node23" class="node">
<title>e_XTRIG_R_IN</title>
<path fill="white" stroke="black" d="M267,-176C267,-176 228,-176 228,-176 222,-176 216,-170 216,-164 216,-164 216,-152 216,-152 216,-146 222,-140 228,-140 228,-140 267,-140 267,-140 273,-140 279,-146 279,-152 279,-152 279,-164 279,-164 279,-170 273,-176 267,-176"/>
<text text-anchor="middle" x="247.5" y="-160.8" font-family="DejaVu Sans" font-size="9.00">XTRIG/R_IN</text>
<text text-anchor="middle" x="247.5" y="-150.8" font-family="DejaVu Sans" font-size="9.00">[R] 12.0</text>
</g>
<!-- e_XTRIG_R_IN&#45;&gt;n_SL1 -->
<g id="edge45" class="edge">
<title>e_XTRIG_R_IN&#45;&gt;n_SL1</title>
<path fill="none" stroke="#65758b" d="M279.23,-161.04C350.5,-168.11 521,-185 521,-185 521,-185 553.11,-190.54 576.94,-194.65"/>
<text text-anchor="middle" x="518" y="-187.6" font-family="DejaVu Sans" font-size="8.00">a</text>
</g>
<!-- n_XTRIG_N_TRIG -->
<g id="node50" class="node">
<title>n_XTRIG_N_TRIG</title>
<ellipse fill="#fffdf2" stroke="black" cx="603.19" cy="-110" rx="43.1" ry="18"/>
<text text-anchor="middle" x="603.19" y="-107.8" font-family="DejaVu Sans" font-size="9.00">XTRIG/N_TRIG</text>
</g>
<!-- e_XTRIG_R_IN&#45;&gt;n_XTRIG_N_TRIG -->
<g id="edge46" class="edge">
<title>e_XTRIG_R_IN&#45;&gt;n_XTRIG_N_TRIG</title>
<path fill="none" stroke="#65758b" d="M279.19,-154.14C343.61,-146.04 487,-128 487,-128 487,-128 528.96,-121.44 562.22,-116.25"/>
<text text-anchor="middle" x="518" y="-126.6" font-family="DejaVu Sans" font-size="8.00">b</text>
</g>
<!-- e_XTRIG_B_TRIG -->
<g id="node24" class="node">
<title>e_XTRIG_B_TRIG</title>
<path fill="white" stroke="black" d="M285.5,-58C285.5,-58 209.5,-58 209.5,-58 203.5,-58 197.5,-52 197.5,-46 197.5,-46 197.5,-34 197.5,-34 197.5,-28 203.5,-22 209.5,-22 209.5,-22 285.5,-22 285.5,-22 291.5,-22 297.5,-28 297.5,-34 297.5,-34 297.5,-46 297.5,-46 297.5,-52 291.5,-58 285.5,-58"/>
<text text-anchor="middle" x="247.5" y="-42.8" font-family="DejaVu Sans" font-size="9.00">XTRIG/B_TRIG</text>
<text text-anchor="middle" x="247.5" y="-32.8" font-family="DejaVu Sans" font-size="9.00">[B] jjmit area=0.50</text>
</g>
<!-- n_XTRIG_0 -->
<g id="node49" class="node">
<title>n_XTRIG_0</title>
<ellipse fill="#fffdf2" stroke="black" cx="603.19" cy="-18" rx="28.08" ry="18"/>
<text text-anchor="middle" x="603.19" y="-15.8" font-family="DejaVu Sans" font-size="9.00">XTRIG/0</text>
</g>
<!-- e_XTRIG_B_TRIG&#45;&gt;n_XTRIG_0 -->
<g id="edge48" class="edge">
<title>e_XTRIG_B_TRIG&#45;&gt;n_XTRIG_0</title>
<path fill="none" stroke="#65758b" d="M297.69,-32.62C374.69,-21.06 515,0 515,0 515,0 521,0 521,0 521,0 552.32,-6.94 576.05,-12.21"/>
<text text-anchor="middle" x="518" y="-2.6" font-family="DejaVu Sans" font-size="8.00">b</text>
</g>
<!-- e_XTRIG_B_TRIG&#45;&gt;n_XTRIG_N_TRIG -->
<g id="edge47" class="edge">
<title>e_XTRIG_B_TRIG&#45;&gt;n_XTRIG_N_TRIG</title>
<path fill="none" stroke="#65758b" d="M297.63,-45.97C367.45,-54.46 487,-69 487,-69 487,-69 535.73,-86.34 569.8,-98.47"/>
<text text-anchor="middle" x="518" y="-82.6" font-family="DejaVu Sans" font-size="8.00">a</text>
</g>
<!-- e_XTRIG_I_TRIG_BIAS -->
<g id="node25" class="node">
<title>e_XTRIG_I_TRIG_BIAS</title>
<path fill="white" stroke="black" d="M359,-117C359,-117 136,-117 136,-117 130,-117 124,-111 124,-105 124,-105 124,-93 124,-93 124,-87 130,-81 136,-81 136,-81 359,-81 359,-81 365,-81 371,-87 371,-93 371,-93 371,-105 371,-105 371,-111 365,-117 359,-117"/>
<text text-anchor="middle" x="247.5" y="-101.8" font-family="DejaVu Sans" font-size="9.00">XTRIG/I_TRIG_BIAS</text>
<text text-anchor="middle" x="247.5" y="-91.8" font-family="DejaVu Sans" font-size="9.00">[I] pwl(0p 0 2p 10U 80p 10U 140p 10U 170p 10U)</text>
</g>
<!-- e_XTRIG_I_TRIG_BIAS&#45;&gt;n_XTRIG_0 -->
<g id="edge49" class="edge">
<title>e_XTRIG_I_TRIG_BIAS&#45;&gt;n_XTRIG_0</title>
<path fill="none" stroke="#65758b" d="M371.24,-83.56C429.68,-76.21 487,-69 487,-69 487,-69 545.86,-42.94 579.43,-28.08"/>
<text text-anchor="middle" x="518" y="-58.6" font-family="DejaVu Sans" font-size="8.00">a</text>
</g>
<!-- e_XTRIG_I_TRIG_BIAS&#45;&gt;n_XTRIG_N_TRIG -->
<g id="edge50" class="edge">
<title>e_XTRIG_I_TRIG_BIAS&#45;&gt;n_XTRIG_N_TRIG</title>
<path fill="none" stroke="#65758b" d="M371.21,-102.82C436.85,-104.86 513.51,-107.24 559.92,-108.69"/>
<text text-anchor="middle" x="518" y="-110.6" font-family="DejaVu Sans" font-size="8.00">b</text>
</g>
<!-- e_I_WL1 -->
<g id="node26" class="node">
<title>e_I_WL1</title>
<path fill="white" stroke="black" d="M467,-1967C467,-1967 28,-1967 28,-1967 22,-1967 16,-1961 16,-1955 16,-1955 16,-1943 16,-1943 16,-1937 22,-1931 28,-1931 28,-1931 467,-1931 467,-1931 473,-1931 479,-1937 479,-1943 479,-1943 479,-1955 479,-1955 479,-1961 473,-1967 467,-1967"/>
<text text-anchor="middle" x="247.5" y="-1951.8" font-family="DejaVu Sans" font-size="9.00">I_WL1</text>
<text text-anchor="middle" x="247.5" y="-1941.8" font-family="DejaVu Sans" font-size="9.00">[I] pwl(0p 0 10p 0 11p +100U 20p +100U 21p 0 95p 0 96p +100U 105p +100U 106p 0 170p 0)</text>
</g>
<!-- n_0 -->
<g id="node29" class="node">
<title>n_0</title>
<ellipse fill="#fffdf2" stroke="black" cx="603.19" cy="-1997" rx="27" ry="18"/>
<text text-anchor="middle" x="603.19" y="-1994.8" font-family="DejaVu Sans" font-size="9.00">0</text>
</g>
<!-- e_I_WL1&#45;&gt;n_0 -->
<g id="edge51" class="edge">
<title>e_I_WL1&#45;&gt;n_0</title>
<path fill="none" stroke="#65758b" d="M391.71,-1967.01C442.36,-1973.39 487,-1979 487,-1979 487,-1979 542.69,-1987.7 576.62,-1993.01"/>
<text text-anchor="middle" x="518" y="-1985.6" font-family="DejaVu Sans" font-size="8.00">a</text>
</g>
<!-- e_I_WL1&#45;&gt;n_WL1 -->
<g id="edge52" class="edge">
<title>e_I_WL1&#45;&gt;n_WL1</title>
<path fill="none" stroke="#65758b" d="M396.83,-1930.96C445.33,-1925.07 487,-1920 487,-1920 487,-1920 542.69,-1912.26 576.62,-1907.55"/>
<text text-anchor="middle" x="518" y="-1917.6" font-family="DejaVu Sans" font-size="8.00">b</text>
</g>
<!-- e_I_BL1 -->
<g id="node27" class="node">
<title>e_I_BL1</title>
<path fill="white" stroke="black" d="M375,-2026C375,-2026 120,-2026 120,-2026 114,-2026 108,-2020 108,-2014 108,-2014 108,-2002 108,-2002 108,-1996 114,-1990 120,-1990 120,-1990 375,-1990 375,-1990 381,-1990 387,-1996 387,-2002 387,-2002 387,-2014 387,-2014 387,-2020 381,-2026 375,-2026"/>
<text text-anchor="middle" x="247.5" y="-2010.8" font-family="DejaVu Sans" font-size="9.00">I_BL1</text>
<text text-anchor="middle" x="247.5" y="-2000.8" font-family="DejaVu Sans" font-size="9.00">[I] pwl(0p 0 10p 0 11p +100U 20p +100U 21p 0 170p 0)</text>
</g>
<!-- e_I_BL1&#45;&gt;n_0 -->
<g id="edge53" class="edge">
<title>e_I_BL1&#45;&gt;n_0</title>
<path fill="none" stroke="#65758b" d="M387.14,-2007.49C454.46,-2007.24 521,-2007 521,-2007 521,-2007 552.71,-2003.09 576.5,-2000.16"/>
<text text-anchor="middle" x="518" y="-2009.6" font-family="DejaVu Sans" font-size="8.00">a</text>
</g>
<!-- e_I_BL1&#45;&gt;n_BL1 -->
<g id="edge54" class="edge">
<title>e_I_BL1&#45;&gt;n_BL1</title>
<path fill="none" stroke="#65758b" d="M387.24,-1991.13C439.7,-1984.75 487,-1979 487,-1979 487,-1979 515,-1850 515,-1850 515,-1850 551.66,-1840.75 577.44,-1834.25"/>
<text text-anchor="middle" x="518" y="-1852.6" font-family="DejaVu Sans" font-size="8.00">b</text>
</g>
<!-- e_I_SE1 -->
<g id="node28" class="node">
<title>e_I_SE1</title>
<path fill="white" stroke="black" d="M381,-1908C381,-1908 114,-1908 114,-1908 108,-1908 102,-1902 102,-1896 102,-1896 102,-1884 102,-1884 102,-1878 108,-1872 114,-1872 114,-1872 381,-1872 381,-1872 387,-1872 393,-1878 393,-1884 393,-1884 393,-1896 393,-1896 393,-1902 387,-1908 381,-1908"/>
<text text-anchor="middle" x="247.5" y="-1892.8" font-family="DejaVu Sans" font-size="9.00">I_SE1</text>
<text text-anchor="middle" x="247.5" y="-1882.8" font-family="DejaVu Sans" font-size="9.00">[I] pwl(0p 0 95p 0 96p +100U 105p +100U 106p 0 170p 0)</text>
</g>
<!-- e_I_SE1&#45;&gt;n_0 -->
<g id="edge55" class="edge">
<title>e_I_SE1&#45;&gt;n_0</title>
<path fill="none" stroke="#65758b" d="M391.71,-1908.01C442.36,-1914.39 487,-1920 487,-1920 487,-1920 550.78,-1962.64 583.42,-1984.46"/>
<text text-anchor="middle" x="518" y="-1942.6" font-family="DejaVu Sans" font-size="8.00">a</text>
</g>
<!-- e_I_SE1&#45;&gt;n_SE1 -->
<g id="edge56" class="edge">
<title>e_I_SE1&#45;&gt;n_SE1</title>
<path fill="none" stroke="#65758b" d="M271.8,-1871.73C331.82,-1824.68 487,-1703 487,-1703 487,-1703 515,-1628 515,-1628 515,-1628 553,-1614.49 578.82,-1605.31"/>
<text text-anchor="middle" x="518" y="-1630.6" font-family="DejaVu Sans" font-size="8.00">b</text>
</g>
<!-- legend -->
<g id="node51" class="node">
<title>legend</title>
<polygon fill="none" stroke="#8c98a8" points="409.5,-2144 79.5,-2144 79.5,-2086 415.5,-2086 415.5,-2138 409.5,-2144"/>
<polyline fill="none" stroke="#8c98a8" points="409.5,-2144 409.5,-2138 "/>
<polyline fill="none" stroke="#8c98a8" points="415.5,-2138 409.5,-2138 "/>
<text text-anchor="middle" x="247.5" y="-2132.8" font-family="DejaVu Sans" font-size="9.00">Legend</text>
<text text-anchor="middle" x="247.5" y="-2122.8" font-family="DejaVu Sans" font-size="9.00">boxes: primitive elements</text>
<text text-anchor="middle" x="247.5" y="-2112.8" font-family="DejaVu Sans" font-size="9.00">ellipses: exact nets</text>
<text text-anchor="middle" x="247.5" y="-2102.8" font-family="DejaVu Sans" font-size="9.00">diamonds: mutual coupling</text>
<text text-anchor="middle" x="247.5" y="-2092.8" font-family="DejaVu Sans" font-size="9.00">source: test/exploration/bvm&#45;sfq&#45;receiver&#45;r0&#45;20260819/inputs/read1.cir</text>
</g>
</g>
</svg>
