<?xml version="1.0" encoding="UTF-8" standalone="no"?>
<!DOCTYPE svg PUBLIC "-//W3C//DTD SVG 1.1//EN"
 "http://www.w3.org/Graphics/SVG/1.1/DTD/svg11.dtd">
<!-- Generated by graphviz version 2.43.0 (0)
 -->
<!-- Title: topology Pages: 1 -->
<svg width="879pt" height="459pt"
 viewBox="0.00 0.00 879.20 459.20" xmlns="http://www.w3.org/2000/svg" xmlns:xlink="http://www.w3.org/1999/xlink">
<g id="graph0" class="graph" transform="scale(1 1) rotate(0) translate(21.6 437.6)">
<title>topology</title>
<polygon fill="white" stroke="transparent" points="-21.6,21.6 -21.6,-437.6 857.6,-437.6 857.6,21.6 -21.6,21.6"/>
<text text-anchor="middle" x="418" y="-399.2" font-family="DejaVu Sans" font-size="16.00">qb&#45;q0&#45;standalone&#45;current&#45;quantized&#45;event&#45;20260824 — structural variant test&#45;qb&#45;final</text>
<text text-anchor="middle" x="418" y="-381.2" font-family="DejaVu Sans" font-size="16.00">source: test/exploration/qb&#45;q0&#45;standalone&#45;current&#45;quantized&#45;event&#45;20260824/inputs/test_qb_final.cir</text>
<g id="clust1" class="cluster">
<title>cluster_top&#45;level</title>
<path fill="#f1f3f5" fill-opacity="0.333333" stroke="#f1f3f5" d="M270,-33C270,-33 434,-33 434,-33 440,-33 446,-39 446,-45 446,-45 446,-294 446,-294 446,-300 440,-306 434,-306 434,-306 270,-306 270,-306 264,-306 258,-300 258,-294 258,-294 258,-45 258,-45 258,-39 264,-33 270,-33"/>
<text text-anchor="middle" x="352" y="-289.2" font-family="DejaVu Sans" font-size="16.00">bias / top&#45;level</text>
<text text-anchor="middle" x="352" y="-271.2" font-family="DejaVu Sans" font-size="16.00">(top&#45;level)</text>
</g>
<!-- e_XBQ -->
<g id="node1" class="node">
<title>e_XBQ</title>
<path fill="white" stroke="black" d="M374.5,-254C374.5,-254 329.5,-254 329.5,-254 323.5,-254 317.5,-248 317.5,-242 317.5,-242 317.5,-230 317.5,-230 317.5,-224 323.5,-218 329.5,-218 329.5,-218 374.5,-218 374.5,-218 380.5,-218 386.5,-224 386.5,-230 386.5,-230 386.5,-242 386.5,-242 386.5,-248 380.5,-254 374.5,-254"/>
<text text-anchor="middle" x="352" y="-238.8" font-family="DejaVu Sans" font-size="9.00">XBQ</text>
<text text-anchor="middle" x="352" y="-228.8" font-family="DejaVu Sans" font-size="9.00">[X] IBIAS BQ</text>
</g>
<!-- n_IN1 -->
<g id="node7" class="node">
<title>n_IN1</title>
<ellipse fill="#fffdf2" stroke="black" cx="693" cy="-184" rx="27" ry="18"/>
<text text-anchor="middle" x="693" y="-181.8" font-family="DejaVu Sans" font-size="9.00">IN1</text>
</g>
<!-- e_XBQ&#45;&gt;n_IN1 -->
<g id="edge1" class="edge">
<title>e_XBQ&#45;&gt;n_IN1</title>
<path fill="none" stroke="#65758b" d="M386.69,-233.2C460.51,-227.07 630,-213 630,-213 630,-213 652.44,-202.51 670.32,-194.14"/>
<text text-anchor="middle" x="627" y="-215.6" font-family="DejaVu Sans" font-size="8.00">a</text>
</g>
<!-- n_OUT1 -->
<g id="node8" class="node">
<title>n_OUT1</title>
<ellipse fill="#fffdf2" stroke="black" cx="693" cy="-260" rx="27" ry="18"/>
<text text-anchor="middle" x="693" y="-257.8" font-family="DejaVu Sans" font-size="9.00">OUT1</text>
</g>
<!-- e_XBQ&#45;&gt;n_OUT1 -->
<g id="edge2" class="edge">
<title>e_XBQ&#45;&gt;n_OUT1</title>
<path fill="none" stroke="#65758b" d="M386.74,-238.39C454.4,-243.18 605.35,-253.87 666.01,-258.16"/>
<text text-anchor="middle" x="627" y="-257.6" font-family="DejaVu Sans" font-size="8.00">b</text>
</g>
<!-- e_R_LOAD -->
<g id="node2" class="node">
<title>e_R_LOAD</title>
<path fill="white" stroke="black" d="M367,-195C367,-195 337,-195 337,-195 331,-195 325,-189 325,-183 325,-183 325,-171 325,-171 325,-165 331,-159 337,-159 337,-159 367,-159 367,-159 373,-159 379,-165 379,-171 379,-171 379,-183 379,-183 379,-189 373,-195 367,-195"/>
<text text-anchor="middle" x="352" y="-179.8" font-family="DejaVu Sans" font-size="9.00">R_LOAD</text>
<text text-anchor="middle" x="352" y="-169.8" font-family="DejaVu Sans" font-size="9.00">[R] 10</text>
</g>
<!-- n_0 -->
<g id="node5" class="node">
<title>n_0</title>
<ellipse fill="#fffdf2" stroke="black" cx="693" cy="-92" rx="27" ry="18"/>
<text text-anchor="middle" x="693" y="-89.8" font-family="DejaVu Sans" font-size="9.00">0</text>
</g>
<!-- e_R_LOAD&#45;&gt;n_0 -->
<g id="edge4" class="edge">
<title>e_R_LOAD&#45;&gt;n_0</title>
<path fill="none" stroke="#65758b" d="M379.05,-173.79C440.23,-166.24 588,-148 588,-148 588,-148 630,-139 630,-139 630,-139 656.07,-119.24 674.4,-105.34"/>
<text text-anchor="middle" x="627" y="-142.6" font-family="DejaVu Sans" font-size="8.00">b</text>
</g>
<!-- e_R_LOAD&#45;&gt;n_OUT1 -->
<g id="edge3" class="edge">
<title>e_R_LOAD&#45;&gt;n_OUT1</title>
<path fill="none" stroke="#65758b" d="M379.06,-179.54C448.01,-186.26 630,-204 630,-204 630,-204 657.66,-228.99 676.03,-245.58"/>
<text text-anchor="middle" x="627" y="-206.6" font-family="DejaVu Sans" font-size="8.00">a</text>
</g>
<!-- e_I_IBIAS -->
<g id="node3" class="node">
<title>e_I_IBIAS</title>
<path fill="white" stroke="black" d="M390,-77C390,-77 314,-77 314,-77 308,-77 302,-71 302,-65 302,-65 302,-53 302,-53 302,-47 308,-41 314,-41 314,-41 390,-41 390,-41 396,-41 402,-47 402,-53 402,-53 402,-65 402,-65 402,-71 396,-77 390,-77"/>
<text text-anchor="middle" x="352" y="-61.8" font-family="DejaVu Sans" font-size="9.00">I_IBIAS</text>
<text text-anchor="middle" x="352" y="-51.8" font-family="DejaVu Sans" font-size="9.00">[I] pwl(0 0 1p 35u)</text>
</g>
<!-- e_I_IBIAS&#45;&gt;n_0 -->
<g id="edge5" class="edge">
<title>e_I_IBIAS&#45;&gt;n_0</title>
<path fill="none" stroke="#65758b" d="M402.2,-62.37C481.8,-67.83 630,-78 630,-78 630,-78 649.89,-82.49 667.14,-86.39"/>
<text text-anchor="middle" x="627" y="-80.6" font-family="DejaVu Sans" font-size="8.00">a</text>
</g>
<!-- n_IBIAS -->
<g id="node6" class="node">
<title>n_IBIAS</title>
<ellipse fill="#fffdf2" stroke="black" cx="693" cy="-18" rx="27" ry="18"/>
<text text-anchor="middle" x="693" y="-15.8" font-family="DejaVu Sans" font-size="9.00">IBIAS</text>
</g>
<!-- e_I_IBIAS&#45;&gt;n_IBIAS -->
<g id="edge6" class="edge">
<title>e_I_IBIAS&#45;&gt;n_IBIAS</title>
<path fill="none" stroke="#65758b" d="M402.29,-53.04C475.38,-44.2 609.9,-27.93 666.18,-21.12"/>
<text text-anchor="middle" x="627" y="-28.6" font-family="DejaVu Sans" font-size="8.00">b</text>
</g>
<!-- e_I_IN -->
<g id="node4" class="node">
<title>e_I_IN</title>
<path fill="white" stroke="black" d="M426,-136C426,-136 278,-136 278,-136 272,-136 266,-130 266,-124 266,-124 266,-112 266,-112 266,-106 272,-100 278,-100 278,-100 426,-100 426,-100 432,-100 438,-106 438,-112 438,-112 438,-124 438,-124 438,-130 432,-136 426,-136"/>
<text text-anchor="middle" x="352" y="-120.8" font-family="DejaVu Sans" font-size="9.00">I_IN</text>
<text text-anchor="middle" x="352" y="-110.8" font-family="DejaVu Sans" font-size="9.00">[I] pulse(0 90u 10p 1p 1p 5p 50p)</text>
</g>
<!-- e_I_IN&#45;&gt;n_0 -->
<g id="edge7" class="edge">
<title>e_I_IN&#45;&gt;n_0</title>
<path fill="none" stroke="#65758b" d="M438,-110.16C517.48,-102.83 624,-93 624,-93 624,-93 646.73,-92.67 665.9,-92.38"/>
<text text-anchor="middle" x="627" y="-95.6" font-family="DejaVu Sans" font-size="8.00">a</text>
</g>
<!-- e_I_IN&#45;&gt;n_IN1 -->
<g id="edge8" class="edge">
<title>e_I_IN&#45;&gt;n_IN1</title>
<path fill="none" stroke="#65758b" d="M438.37,-121.7C519.76,-125.22 630,-130 630,-130 630,-130 657.34,-153.81 675.71,-169.81"/>
<text text-anchor="middle" x="627" y="-132.6" font-family="DejaVu Sans" font-size="8.00">b</text>
</g>
<!-- legend -->
<g id="node9" class="node">
<title>legend</title>
<polygon fill="none" stroke="#8c98a8" points="582,-372 116,-372 116,-314 588,-314 588,-366 582,-372"/>
<polyline fill="none" stroke="#8c98a8" points="582,-372 582,-366 "/>
<polyline fill="none" stroke="#8c98a8" points="588,-366 582,-366 "/>
<text text-anchor="middle" x="352" y="-360.8" font-family="DejaVu Sans" font-size="9.00">Legend</text>
<text text-anchor="middle" x="352" y="-350.8" font-family="DejaVu Sans" font-size="9.00">boxes: primitive elements</text>
<text text-anchor="middle" x="352" y="-340.8" font-family="DejaVu Sans" font-size="9.00">ellipses: exact nets</text>
<text text-anchor="middle" x="352" y="-330.8" font-family="DejaVu Sans" font-size="9.00">diamonds: mutual coupling</text>
<text text-anchor="middle" x="352" y="-320.8" font-family="DejaVu Sans" font-size="9.00">source: test/exploration/qb&#45;q0&#45;standalone&#45;current&#45;quantized&#45;event&#45;20260824/inputs/test_qb_final.cir</text>
</g>
</g>
</svg>
